<svg xmlns="http://www.w3.org/2000/svg" xmlns:xlink="http://www.w3.org/1999/xlink" viewBox="0 0 4680 3120"><defs><linearGradient id="l" x1="3337.184" x2="3341.042" y1="2362.142" y2="2463.411" gradientUnits="userSpaceOnUse"><stop offset=".074" stop-color="gray" class="stopColorgray svgShape"/><stop offset="1" stop-color="#ffffff" class="stopColorfff svgShape"/></linearGradient><linearGradient id="o" x1="3380.466" x2="3409.426" y1="2189.426" y2="2394.074" gradientUnits="userSpaceOnUse"><stop offset="0" stop-color="gray" class="stopColorgray svgShape"/><stop offset="1" stop-color="#ffffff" class="stopColorfff svgShape"/></linearGradient><linearGradient id="s" x1="3286.381" x2="3467.381" y1="1876.985" y2="2214.662" gradientUnits="userSpaceOnUse"><stop offset=".269" stop-color="gray" class="stopColorgray svgShape"/><stop offset=".841" stop-color="#ffffff" class="stopColorfff svgShape"/></linearGradient><linearGradient id="f" x1="1297.988" x2="1196.09" y1="1986.712" y2="2271.43" gradientUnits="userSpaceOnUse"><stop offset="0" stop-color="#999999" class="stopColor999 svgShape"/><stop offset="1" stop-color="#ffffff" class="stopColorfff svgShape"/></linearGradient><linearGradient id="x" x1="2626.82" x2="2566.886" y1="2142.35" y2="2309.816" gradientTransform="matrix(-1 0 0 1 3887 0)" xlink:href="#f"/><linearGradient id="g" x1="1401.83" x2="1740.28" y1="1641.893" y2="2108.57" gradientUnits="userSpaceOnUse"><stop offset="0" stop-color="#00b488" class="stopColor00b488 svgShape"/><stop offset=".92" stop-color="#007bc0" class="stopColor007bc0 svgShape"/></linearGradient><linearGradient id="z" x1="2473.966" x2="2494.197" y1="792.183" y2="1874.543" xlink:href="#g"/><linearGradient id="h" x1="1344.113" x2="2133.052" y1="1040.18" y2="1996.542" gradientUnits="userSpaceOnUse"><stop offset="0" stop-color="#8ccc6d" class="stopColor8ccc6d svgShape"/><stop offset=".194" stop-color="#81c768" class="stopColor81c768 svgShape"/><stop offset=".539" stop-color="#62b85b" class="stopColor62b85b svgShape"/><stop offset=".92" stop-color="#39a54a" class="stopColor39a54a svgShape"/></linearGradient><linearGradient id="A" x1="3750.063" x2="4287.737" y1="2421.183" y2="2421.183" xlink:href="#g"/><linearGradient id="B" x1="3499.96" x2="4091.411" y1="1522.121" y2="2239.085" xlink:href="#h"/><linearGradient id="i" x1="3155.793" x2="4449.385" y1="222.179" y2="5254.225" gradientUnits="userSpaceOnUse"><stop offset="0" stop-color="#40d5e6" class="stopColor40d5e6 svgShape"/><stop offset="1" stop-color="#4b69e0" class="stopColor4b69e0 svgShape"/></linearGradient><linearGradient id="C" x1="4160.247" x2="3608.09" y1="1379.472" y2="1458.742" xlink:href="#i"/><linearGradient id="E" x1="3337.184" x2="3341.042" y1="2362.142" y2="2463.411" gradientUnits="userSpaceOnUse"><stop offset=".074" stop-color="#300e50" class="stopColor300e50 svgShape"/><stop offset="1" stop-color="#482db5" class="stopColor482db5 svgShape"/></linearGradient><linearGradient id="G" x1="3380.466" x2="3409.426" y1="2189.426" y2="2394.074" gradientUnits="userSpaceOnUse"><stop offset="0" stop-color="#f4e9d5" class="stopColorf4e9d5 svgShape"/><stop offset="1" stop-color="#f4cbae" class="stopColorf4cbae svgShape"/></linearGradient><linearGradient id="p" x1="3271.441" x2="3531.244" y1="1174.726" y2="1659.417" gradientTransform="rotate(89.989 3290.308 1691.246)" gradientUnits="userSpaceOnUse"><stop offset="0" stop-color="#70e0ff" class="stopColor70e0ff svgShape"/><stop offset="1" stop-color="#3b95e0" class="stopColor3b95e0 svgShape"/></linearGradient><linearGradient id="H" x1="3262.428" x2="3512.62" y1="1188.243" y2="1655.004" gradientTransform="rotate(89.989 3275.913 1689.74)" xlink:href="#p"/><linearGradient id="J" x1="3286.381" x2="3467.381" y1="1876.985" y2="2214.662" gradientUnits="userSpaceOnUse"><stop offset=".269" stop-color="#ffc145" class="stopColorffc145 svgShape"/><stop offset=".841" stop-color="#ffb11b" class="stopColorffb11b svgShape"/></linearGradient><linearGradient id="y" x1="1297.988" x2="1196.09" y1="1986.712" y2="2271.43" gradientUnits="userSpaceOnUse"><stop offset="0" stop-color="#172652" class="stopColor172652 svgShape"/><stop offset="1" stop-color="#00579f" class="stopColor00579f svgShape"/></linearGradient><linearGradient id="M" x1="2626.82" x2="2566.886" y1="2142.35" y2="2309.816" gradientTransform="matrix(-1 0 0 1 3887 0)" xlink:href="#y"/><filter id="a" width="773.163" height="32766" x="2953.975" y="-9752" color-interpolation-filters="sRGB" filterUnits="userSpaceOnUse"><feFlood flood-color="#fff" result="bg"/><feBlend in="SourceGraphic" in2="bg"/></filter><filter id="b" width="646.458" height="32766" x="3079.395" y="-9752" color-interpolation-filters="sRGB" filterUnits="userSpaceOnUse"><feFlood flood-color="#fff" result="bg"/><feBlend in="SourceGraphic" in2="bg"/></filter><filter id="c" width="233.864" height="32766" x="3289.607" y="-9752" color-interpolation-filters="sRGB" filterUnits="userSpaceOnUse"><feFlood flood-color="#fff" result="bg"/><feBlend in="SourceGraphic" in2="bg"/></filter><filter id="d" width="190.209" height="32766" x="1114.799" y="-9752" color-interpolation-filters="sRGB" filterUnits="userSpaceOnUse"><feFlood flood-color="#fff" result="bg"/><feBlend in="SourceGraphic" in2="bg"/></filter><filter id="e" width="97.188" height="32766" x="1242.83" y="-9752" color-interpolation-filters="sRGB" filterUnits="userSpaceOnUse"><feFlood flood-color="#fff" result="bg"/><feBlend in="SourceGraphic" in2="bg"/></filter><filter id="k" width="773.163" height="89.909" x="2953.975" y="2403.685" color-interpolation-filters="sRGB" filterUnits="userSpaceOnUse"><feFlood flood-color="#fff" result="bg"/><feBlend in="SourceGraphic" in2="bg"/></filter><filter id="n" width="646.458" height="78.837" x="3079.395" y="2306.589" color-interpolation-filters="sRGB" filterUnits="userSpaceOnUse"><feFlood flood-color="#fff" result="bg"/><feBlend in="SourceGraphic" in2="bg"/></filter><filter id="r" width="233.864" height="308.558" x="3289.607" y="1953.418" color-interpolation-filters="sRGB" filterUnits="userSpaceOnUse"><feFlood flood-color="#fff" result="bg"/><feBlend in="SourceGraphic" in2="bg"/></filter><filter id="u" width="190.209" height="482.897" x="1114.799" y="1892.67" color-interpolation-filters="sRGB" filterUnits="userSpaceOnUse"><feFlood flood-color="#fff" result="bg"/><feBlend in="SourceGraphic" in2="bg"/></filter><filter id="w" width="97.188" height="288.484" x="1242.83" y="2087.084" color-interpolation-filters="sRGB" filterUnits="userSpaceOnUse"><feFlood flood-color="#fff" result="bg"/><feBlend in="SourceGraphic" in2="bg"/></filter><mask id="D" width="773.163" height="89.909" x="2953.975" y="2403.685" maskUnits="userSpaceOnUse"><g filter="url(#k)" mask="url(#j)" fill="#000000" class="color000 svgShape"><path d="M3726.6715,2409.694a191.65194,191.65194,0,0,0-17.6008,52.8441c-414.0674-36.1682-695.6703,18.0648-755.0958,31.0564a195.26823,195.26823,0,0,1,19.5124-81.6146,14.905,14.905,0,0,1,13.372-8.2946h736.153A4.11642,4.11642,0,0,1,3726.6715,2409.694Z" style="mix-blend-mode:multiply" fill="url(#l)"/></g></mask><mask id="F" width="646.458" height="78.837" x="3079.395" y="2306.589" maskUnits="userSpaceOnUse"><g filter="url(#n)" mask="url(#m)" fill="#000000" class="color000 svgShape"><path d="M3079.5756,2385.3553c-6.8366,2.5302,179.7048-63.9356,646.2775-61.084v-17.6822H3079.5756Z" style="mix-blend-mode:multiply" fill="url(#o)"/></g></mask><mask id="I" width="233.864" height="308.558" x="3289.607" y="1953.418" maskUnits="userSpaceOnUse"><g filter="url(#r)" mask="url(#q)" fill="#000000" class="color000 svgShape"><path d="M3523.4056,1962.4222l-38.0527,299.5537H3299.8327l-10.2261-85.3296c86.17-74.7385,134.8623-165.3905,159.3534-223.2283h66.5036A8.00033,8.00033,0,0,1,3523.4056,1962.4222Z" style="mix-blend-mode:multiply" fill="url(#s)" fill-rule="evenodd"/></g></mask><mask id="K" width="190.209" height="482.897" x="1114.799" y="1892.67" maskUnits="userSpaceOnUse"><g filter="url(#u)" mask="url(#t)" fill="#000000" class="color000 svgShape"><path d="M1198.7643,2375.5677s-100.4464-25.0856-81.6127-87.7996,87.8906-62.7139,65.918-188.1418-6.2779-141.1064,91.0296-206.9561c0,0-78.4738,109.7494,0,194.4133s-15.7359,162.2659-28.2506,194.4132c-21.9727,56.4426,32.959,91.9805,32.959,91.9805Z" style="mix-blend-mode:multiply" fill="url(#f)"/></g></mask><mask id="L" width="97.188" height="288.484" x="1242.83" y="2087.084" maskUnits="userSpaceOnUse"><g filter="url(#w)" mask="url(#v)" fill="#000000" class="color000 svgShape"><path d="M1306.974,2375.5676s39.5297-13.1944,32.1179-46.1802-78.0734-54.9706-27.3253-98.0618c62.779-53.3069.627-109.607-37.6674-144.2421,0,0,37.6674,65.8496-21.9727,144.2421-32.8134,43.1308,31.3929,77.8545,36.318,94.7632,8.6471,29.6873-12.9707,48.3793-12.9707,48.3793Z" style="mix-blend-mode:multiply" fill="url(#x)"/></g></mask></defs><g data-name="5" fill="#000000" class="color000 svgShape"><path fill="#d2dfff" d="M506.65569,1049.4581S790.38718,485.2196,1644.1983,709.2212,2682.6011,468.8008,3299.9875,500.9849c766.7298,39.9692,1338.6306,1024.8175,590.5366,1680.6584-929.2582,814.6643-1889.6879-227.2093-2415.932,37.3409C963.62768,2475.8531,71.1192,1877.5253,506.65569,1049.4581Z" class="colord2dfff svgShape"/><path fill="url(#g)" fill-rule="evenodd" d="M1820.2552,1956.9137l-21.6191,118.9582-3.5186,19.4217-17.6446,97.1339c-182.7994-77.2317-490.9331-305.9682-383.0154-445.3849C1499.0083,1611.9756,1808.3825,1952.7158,1820.2552,1956.9137Z"/><path fill="#0e2d34" fill-rule="evenodd" d="M1798.6361,2075.8719l-3.5186,19.4217c-177.4327-123.8642-291.9576-223.6534-292.8437-224.4373a8.322,8.322,0,0,1-.3796-12.3663,9.90605,9.90605,0,0,1,13.265-.5058C1516.02,1858.7429,1626.6969,1955.1941,1798.6361,2075.8719Z" class="color0e2d34 svgShape"/><path fill="url(#z)" fill-rule="evenodd" d="M2131.361,1730.0863c-180.1696-142.8829-358.3246-479.9123-191.4937-541.9119,118.357-43.9851,128.2861,143.3714,169.8529-200.6618,28.6681-237.2754,244.6854-352.4429,432.9552-205.6269s189.4375,465.9746,314.6388,392.8724c167.7811-97.9636,403.4415,19.0517,57.8073,473.8209C2517.1833,2172.1675,2131.361,1730.0863,2131.361,1730.0863Z"/><path fill="#0e2d34" fill-rule="evenodd" d="M2473.3192,2210.3702c89.0071-566.5812-87.3895-1240.653-88.0232-1243.1195a8.30267,8.30267,0,0,0-10.8754-5.8488,9.894,9.894,0,0,0-6.3786,11.6493c.6241,2.4345,174.1759,665.7533,89.4632,1225.3038l8.6239,16.3834Z" class="color0e2d34 svgShape"/><path fill="url(#h)" fill-rule="evenodd" d="M2217.1938,1874.4472l-56.3258,133.7015-7.4679,17.7021-62.452,148.2424s-703.756-395.8949-586.3198-625.2636c0,0-136.3717-377.7122,109.1074-415.1648,219.3794-33.5076,239.0745,234.2241,381.37,268.819C2137.3757,1437.0535,2217.1938,1874.4472,2217.1938,1874.4472Z"/><path fill="#5f9850" fill-rule="evenodd" d="M2160.868,2008.1487l-7.4679,17.7021c-306.6402-315.7803-515.0583-668.1534-516.0455-669.8223a8.32185,8.32185,0,0,1,3.5187-11.8605,9.92062,9.92062,0,0,1,12.7588,3.6922C1654.6194,1349.5292,1859.5693,1695.9594,2160.868,2008.1487Z" class="color5f9850 svgShape"/><path fill="url(#A)" fill-rule="evenodd" d="M3750.0633,2630.9325s193.3145-458.38,445.6574-416.8371c49.1151,8.0857,94.534,32.6649,91.9081,101.3321-2.614,68.3552-65.0016,114.9323-161.9252,156.0337-276.8596,117.405-217.7701,156.3681-217.7701,156.3681Z"/><path fill="#0e2d34" d="M4160.2273,2295.9443c-150.9201,61.7227-292.035,166.3754-346.8484,325.7529-3.1829,9.2547,11.4838,13.2295,14.6464,4.0337,52.9146-153.8565,190.6059-255.5946,336.2398-315.1554,8.9241-3.6497,5.0178-18.3347-4.0378-14.6312Z" class="color0e2d34 svgShape"/><path fill="url(#B)" fill-rule="evenodd" d="M3752.0956,2626.068s60.2664-177.0869,231.6391-298.5532c158.1045-112.0619,356.604-289.5831,205.0506-394.9449s211.9468-557.9401-36.0743-633.9134-531.7077,536.0177-531.7077,536.0177-17.3956-206.7361-125.6264-63.9543c-113.3806,149.5758-39.207,732.4803,48.1815,855.3481Z"/><path fill="#5f9850" fill-rule="evenodd" d="M3628.6164,2625.9336c92.9929-560.2081,367.4535-1113.3499,368.591-1115.6532,2.5441-5.1759,8.603-7.5697,13.5147-5.3581,4.9203,2.2299,6.863,8.2296,4.3045,13.3935-1.1118,2.3003-272.373,549.0591-365.7653,1102.901Q3638.97025,2623.74775,3628.6164,2625.9336Z" class="color5f9850 svgShape"/><path fill="#482db5" d="M483.12679,2586.3373H4048.7859a22.8635,22.8635,0,0,1,22.8635,22.8635v27.2363a22.8635,22.8635,0,0,1-22.8635,22.8635H483.12669a22.8634,22.8634,0,0,1-22.8634-22.8634v-27.2364A22.8635,22.8635,0,0,1,483.12679,2586.3373Z" class="color482db5 svgShape"/><path d="M1139.5741,2578.5609c-25.8246-58.4328-53.724-110.1712-82.8949-156.0984V1656.0808c0-.3722-.0534-.7329-.0645-1.1027-.0173-.5096-.017-1.0298-.0425-1.5299-.0163-.2292-.0659-.4496-.0864-.6778-.0723-.7979-.1792-1.5851-.3024-2.37-.0931-.5954-.1921-1.1876-.3136-1.7747-.1555-.7482-.3378-1.4854-.5383-2.2193-.1646-.6034-.34-1.2013-.5343-1.7944q-.3426-1.04445-.7454-2.0638-.358-.90945-.7617-1.7975c-.2924-.6431-.598-1.2777-.9256-1.9048-.3146-.6031-.6479-1.1948-.9939-1.7822-.3478-.5897-.7033-1.173-1.0817-1.7462-.3908-.5923-.8038-1.17-1.2265-1.7439-.3953-.5364-.7934-1.0685-1.2156-1.588-.4674-.5754-.9597-1.1316-1.459-1.6853-.436-.4831-.8706-.9648-1.3302-1.4307-.5427-.5505-1.1121-1.0777-1.6865-1.603-.4703-.43-.9357-.862-1.4265-1.2745-.6169-.519-1.2625-1.0096-1.9106-1.4999-.4992-.3774-.9904-.7604-1.5072-1.1202-.6861-.4776-1.4009-.9217-2.1169-1.3673-.5262-.3276-1.0425-.664-1.5842-.9735-.7528-.43-1.5345-.821-2.3157-1.2151-.5461-.2755-1.0807-.5644-1.64-.8218-.8189-.3768-1.6663-.7085-2.5122-1.0453-.5607-.2232-1.1084-.4644-1.6804-.6696-.8871-.3182-1.8025-.5853-2.7155-.8585-.5632-.1687-1.1133-.3599-1.6857-.5112-.9693-.2559-1.9655-.4533-2.9593-.6573-.5454-.112-1.0776-.2517-1.6301-.3477-1.1071-.1923-2.2399-.3185-3.3728-.4446-.4619-.0514-.9118-.1345-1.3777-.1746-1.6069-.1385-3.2355-.2134-4.8848-.2134H865.60158c-26.8613,0-48.6365,18.8079-48.6365,42.0087,0-.3722-.0535-.7329-.0646-1.1027-.0173-.5096-.017-1.0298-.0425-1.5299-.0163-.2292-.0659-.4496-.0864-.6778-.0723-.7979-.17918-1.5851-.3024-2.37-.0931-.5954-.1921-1.1876-.3136-1.7747-.1554-.7482-.3378-1.4854-.5383-2.2193-.1645-.6034-.34-1.2013-.5343-1.7944q-.3426-1.04445-.7454-2.0638-.358-.90945-.7617-1.7975c-.2924-.6431-.598-1.2777-.9256-1.9048-.3146-.6031-.64788-1.1948-.99388-1.7822-.34782-.5897-.70322-1.173-1.08172-1.7462-.3908-.5923-.8037-1.17-1.2264-1.7439-.3953-.5364-.7935-1.0685-1.2157-1.588-.4674-.5754-.9597-1.1316-1.459-1.6853-.436-.4831-.8706-.9648-1.3301-1.4307-.5427-.5505-1.1122-1.0777-1.6866-1.603-.4703-.43-.9357-.862-1.4264-1.2745-.617-.519-1.2626-1.0096-1.9107-1.4999-.4991-.3774-.99038-.7604-1.5072-1.1202-.6861-.4776-1.4009-.9217-2.1169-1.3673-.5262-.3276-1.0425-.664-1.5842-.9735-.7528-.43-1.5345-.821-2.3157-1.2151-.5461-.2755-1.0807-.5644-1.64-.8218-.8189-.3768-1.6663-.7085-2.5122-1.0453-.5607-.2232-1.1084-.4644-1.6804-.6696-.887-.3182-1.8025-.5853-2.7155-.8585-.5632-.1687-1.11328-.3599-1.6857-.5112-.9693-.2559-1.9654-.4533-2.9593-.6573-.54528-.112-1.0776-.2517-1.6301-.3477-1.1071-.1923-2.2398-.3185-3.3728-.4446-.4619-.0514-.9118-.1345-1.3777-.1746-1.6069-.1385-3.2355-.2134-4.8848-.2134H625.8874c-26.86112,0-48.63641,18.8079-48.63641,42.0087v408.1649c-12.575-2.9983-23.6875-5.3399-33.0692-7.2632-11.863-2.4318-23.06939,6.0547-23.06939,17.4809V2540.236c0,27.0317,23.28449,48.9452,52.00729,48.9452H1132.8651C1138.657,2589.1812,1141.8101,2583.6205,1139.5741,2578.5609Z" style="mix-blend-mode:multiply" fill="#e2e2e2" class="colore2e2e2 svgShape"/><path d="M1099.844,2578.5609c-25.8245-58.4328-53.724-110.1712-82.8948-156.0984V1656.0808c0-.3722-.0535-.7329-.0646-1.1027-.0173-.5096-.017-1.0298-.0425-1.5299-.0163-.2292-.0659-.4496-.0864-.6778-.0723-.7979-.1791-1.5851-.3023-2.37-.0932-.5954-.1922-1.1876-.3137-1.7747-.1554-.7482-.3378-1.4854-.5383-2.2193-.1645-.6034-.34-1.2013-.5343-1.7944q-.3426-1.04445-.7454-2.0638-.3579-.90945-.7617-1.7975c-.2924-.6431-.598-1.2777-.9256-1.9048-.3146-.6031-.6479-1.1948-.9939-1.7822-.3478-.5897-.7032-1.173-1.0817-1.7462-.3908-.5923-.8037-1.17-1.2264-1.7439-.3953-.5364-.7935-1.0685-1.2157-1.588-.4674-.5754-.9597-1.1316-1.459-1.6853-.436-.4831-.8706-.9648-1.3301-1.4307-.5427-.5505-1.1122-1.0777-1.6866-1.603-.4703-.43-.9357-.862-1.4264-1.2745-.617-.519-1.2626-1.0096-1.9107-1.4999-.4991-.3774-.9904-.7604-1.5072-1.1202-.6861-.4776-1.4009-.9217-2.1169-1.3673-.5262-.3276-1.0425-.664-1.5842-.9735-.7528-.43-1.5345-.821-2.3157-1.2151-.5461-.2755-1.0807-.5644-1.64-.8218-.8189-.3768-1.6663-.7085-2.5122-1.0453-.5607-.2232-1.1084-.4644-1.6804-.6696-.887-.3182-1.80253-.5853-2.71553-.8585-.5632-.1687-1.1133-.3599-1.6857-.5112-.9693-.2559-1.9654-.4533-2.9592-.6573-.5454-.112-1.0777-.2517-1.6302-.3477-1.107-.1923-2.2398-.3185-3.37279-.4446-.4619-.0514-.9118-.1345-1.3777-.1746-1.6069-.1385-3.2355-.2134-4.88478-.2134H825.87148c-26.8613,0-48.6365,18.8079-48.6365,42.0087,0-.3722-.0535-.7329-.06458-1.1027-.01732-.5096-.01692-1.0298-.04252-1.5299-.0163-.2292-.0659-.4496-.0864-.6778-.0722-.7979-.17908-1.5851-.3023-2.37-.0931-.5954-.1921-1.1876-.3136-1.7747-.1555-.7482-.3379-1.4854-.5384-2.2193-.1645-.6034-.34-1.2013-.5343-1.7944q-.3426-1.04445-.7454-2.0638-.3579-.90945-.7617-1.7975c-.29238-.6431-.598-1.2777-.9255-1.9048-.3147-.6031-.64788-1.1948-.994-1.7822-.3477-.5897-.7032-1.173-1.0817-1.7462-.3908-.5923-.8037-1.17-1.2264-1.7439-.3953-.5364-.7935-1.0685-1.2157-1.588-.4674-.5754-.9597-1.1316-1.459-1.6853-.436-.4831-.8706-.9648-1.33008-1.4307-.54272-.5505-1.11212-1.0777-1.68662-1.603-.4703-.43-.9357-.862-1.42638-1.2745-.617-.519-1.26262-1.0096-1.91062-1.4999-.4992-.3774-.9905-.7604-1.5073-1.1202-.68608-.4776-1.4009-.9217-2.1169-1.3673-.52618-.3276-1.0425-.664-1.58418-.9735-.75282-.43-1.53452-.821-2.31572-1.2151-.546-.2755-1.0807-.5644-1.64-.8218-.8189-.3768-1.66628-.7085-2.5122-1.0453-.5606-.2232-1.1084-.4644-1.6803-.6696-.8871-.3182-1.8026-.5853-2.7156-.8585-.56318-.1687-1.1133-.3599-1.6857-.5112-.9693-.2559-1.9654-.4533-2.9592-.6573-.5454-.112-1.0777-.2517-1.6301-.3477-1.1071-.1923-2.2399-.3185-3.3729-.4446-.4619-.0514-.9118-.1345-1.3777-.1746-1.6069-.1385-3.2355-.2134-4.8848-.2134H586.15728c-26.86109,0-48.63629,18.8079-48.63629,42.0087v408.1649c-12.5751-2.9983-23.68759-5.3399-33.0693-7.2632-11.863-2.4318-23.0694,6.0547-23.0694,17.4809V2540.236c0,27.0317,23.2845,48.9452,52.0073,48.9452H1093.135C1098.9269,2589.1812,1102.0801,2583.6205,1099.844,2578.5609Z" style="mix-blend-mode:multiply" fill="#e2e2e2" class="colore2e2e2 svgShape"/><path fill="#6db8ff" d="M798.76,1657.2853v921.7805H559.04589V1657.2853c0-23.866,22.39951-43.2132,50.03079-43.2132h139.6525C776.3604,1614.0721,798.76,1633.4193,798.76,1657.2853Z" class="color6db8ff svgShape"/><path fill="#c2e3ff" d="M798.76,1656.0808v326.2048H559.04589V1656.0808c0-23.2007,21.77519-42.0087,48.63629-42.0087h142.4414C776.98468,1614.0721,798.76,1632.8801,798.76,1656.0808Z" class="colorc2e3ff svgShape"/><rect width="51.367" height="388.562" x="653.219" y="2042.612" fill="#4ca7f2" class="color4ca7f2 svgShape"/><path fill="#4baaf7" d="M798.76,1657.2935v921.7723H759.1644V1657.2935c0-23.8661-11.19392-43.2214-25.02022-43.2214h15.988c25.8335,0,46.9583,17.3957,48.5207,39.3762C798.71708,1654.7053,798.76,1655.9994,798.76,1657.2935Z" class="color4baaf7 svgShape"/><path fill="#d63344" d="M1038.4741,1657.2853v921.7805H798.76V1657.2853c0-23.866,22.3996-43.2132,50.0308-43.2132H988.4433C1016.0745,1614.0721,1038.4741,1633.4193,1038.4741,1657.2853Z" class="colord63344 svgShape"/><path fill="#ff5c70" d="M1038.4741,1656.0808v326.2048H798.76V1656.0808c0-23.2007,21.7752-42.0087,48.63642-42.0087H989.8377C1016.6989,1614.0721,1038.4741,1632.8801,1038.4741,1656.0808Z" class="colorff5c70 svgShape"/><rect width="51.367" height="388.562" x="892.933" y="2042.612" fill="#b82037" class="colorb82037 svgShape"/><path fill="#c1233a" d="M1038.4741,1657.2935v921.7723H998.8785V1657.2935c0-23.8661-11.1939-43.2214-25.02022-43.2214h15.988c25.8335,0,46.9583,17.3957,48.5207,39.3762C1038.4313,1654.7053,1038.4741,1655.9994,1038.4741,1657.2935Z" class="colorc1233a svgShape"/><ellipse cx="656.383" cy="1743.477" fill="#ffffff" rx="59.218" ry="59.157" class="colorfff svgShape"/><ellipse cx="896.689" cy="1743.477" fill="#ffffff" rx="62.026" ry="59.157" class="colorfff svgShape"/><path fill="#4d388a" d="M525.97659,2056.9826c101.55559,20.8188,404.71739,90.1403,595.39241,521.5783,2.2361,5.0596-.9171,10.6204-6.709,10.6204H554.91459c-28.7229,0-52.0074-21.9136-52.0074-48.9453V2074.4635C502.90719,2063.0372,514.11359,2054.5507,525.97659,2056.9826Z" class="color4d388a svgShape"/><path fill="#2c215b" d="M602.74178 2345.8211h3.1068a8.1977 8.1977 0 018.1977 8.1977v176.6453a8.1977 8.1977 0 01-8.1977 8.1977h-3.1068a8.1976 8.1976 0 01-8.1976-8.1976V2354.0187A8.1976 8.1976 0 01602.74178 2345.8211zM642.02788 2345.8211h3.10692a8.1976 8.1976 0 018.1976 8.1976v176.6454a8.1977 8.1977 0 01-8.1977 8.1977H642.028a8.19772 8.19772 0 01-8.19772-8.19772V2354.0187a8.1976 8.1976 0 018.1976-8.1976zM681.31388 2345.8211h3.10682a8.1977 8.1977 0 018.1977 8.1977v176.6453a8.1977 8.1977 0 01-8.1977 8.1977h-3.1068a8.19762 8.19762 0 01-8.19762-8.19762V2354.0187A8.1976 8.1976 0 01681.31388 2345.8211zM720.59988 2345.8211h3.1069a8.1977 8.1977 0 018.1977 8.1977v176.6453a8.1977 8.1977 0 01-8.1977 8.1977H720.6a8.1977 8.1977 0 01-8.1977-8.1977V2354.0187A8.1976 8.1976 0 01720.59988 2345.8211zM759.886 2345.8211h3.1068a8.19768 8.19768 0 018.19768 8.19768v176.64534a8.19768 8.19768 0 01-8.19768 8.19768h-3.1067a8.1977 8.1977 0 01-8.1977-8.1977V2354.0187a8.1976 8.1976 0 018.1976-8.1976zM799.172 2345.8211h3.1069a8.19768 8.19768 0 018.19768 8.19768V2530.6641a8.1977 8.1977 0 01-8.1977 8.1977H799.1721a8.1977 8.1977 0 01-8.1977-8.1977V2354.0187A8.1976 8.1976 0 01799.172 2345.8211z" class="color2c215b svgShape"/><path d="M2913.7279,781.8857H4039.3167a20.4774,20.4774,0,0,1,20.4774,20.4774V2059.9715a20.4775,20.4775,0,0,1-20.4775,20.4775H2913.7278a20.4774,20.4774,0,0,1-20.4774-20.4774V802.3632A20.4775,20.4775,0,0,1,2913.7279,781.8857Z" style="mix-blend-mode:multiply" fill="#d1d1d1" opacity=".91" class="colord1d1d1 svgShape"/><path fill="url(#i)" d="M4045.9858,777.7891V2054.3257a11.04227,11.04227,0,0,1-11.0156,11.0042H2890.4742a11.08759,11.08759,0,0,1-11.0608-11.0493V777.7891a11.04291,11.04291,0,0,1,11.0162-11.0048h1144.54A11.04291,11.04291,0,0,1,4045.9858,777.7891Z"/><rect width="751.862" height="463.875" x="2944.16" y="837.176" fill="#ffffff" rx="16.942" class="colorfff svgShape"/><rect width="751.862" height="68.3" x="2944.16" y="1232.752" fill="#333333" class="color333 svgShape"/><rect width="254.536" height="90.811" x="3441.09" y="885.807" fill="#e60000" class="colore60000 svgShape"/><path fill="#ffffff" d="M3500.7133 953.7218V908.8856h8.3355v36.7763h13.7368v8.0599zM3533.5171 953.7218V908.8856h8.3355v44.8362zM3570.3802 953.7218l-17.441-44.8362h8.7504l12.1033 34.1084 12.0734-34.1084h8.7504l-17.3513 44.8362zM3605.2025 953.7218V908.8856h24.1169v8.0617H3613.538v10.3115h15.131v8.0599h-15.131v10.3432h15.7814v8.0599z" class="colorfff svgShape"/><polygon fill="#5d5d5d" points="3283.803 1045.076 3283.803 1113.533 3330.094 1079.297 3376.388 1045.076 3330.094 1010.84 3283.803 976.619 3283.803 1045.076" class="color5d5d5d svgShape"/><rect width="755.245" height="22.501" x="2944.16" y="1339.065" fill="#ffffff" class="colorfff svgShape"/><rect width="755.245" height="22.501" x="2944.16" y="1393.284" fill="#ffffff" class="colorfff svgShape"/><rect width="755.245" height="22.501" x="2944.16" y="1445.123" fill="#ffffff" class="colorfff svgShape"/><path fill="url(#C)" d="M4045.9858,779.2036V2052.9112a12.46166,12.46166,0,0,1-12.4316,12.4187h-257.166V766.7843h257.1654A12.4623,12.4623,0,0,1,4045.9858,779.2036Z"/><path fill="#eef2ff" d="M3846.8141 820.8656h134.7584a16.3174 16.3174 0 0116.3174 16.3174v67.733a16.3175 16.3175 0 01-16.3175 16.3175H3846.8142a16.3175 16.3175 0 01-16.3175-16.3175V837.183A16.3174 16.3174 0 013846.8141 820.8656zM3846.8141 953.7218h134.7584a16.3174 16.3174 0 0116.3174 16.3174v67.733a16.3175 16.3175 0 01-16.3175 16.3175H3846.8142a16.3175 16.3175 0 01-16.3175-16.3175v-67.733A16.3174 16.3174 0 013846.8141 953.7218zM3846.8141 1086.578h134.7584a16.3174 16.3174 0 0116.3174 16.3174v67.7331a16.3174 16.3174 0 01-16.3174 16.3174H3846.8142a16.3175 16.3175 0 01-16.3175-16.3175v-67.733A16.3174 16.3174 0 013846.8141 1086.578zM3846.8142 1219.4342h134.7582a16.3175 16.3175 0 0116.3175 16.3175v67.733a16.3174 16.3174 0 01-16.3174 16.3174H3846.8142a16.3175 16.3175 0 01-16.3175-16.3175v-67.7329a16.3175 16.3175 0 0116.3175-16.3175zM3846.8142 1352.2904h134.7582a16.3175 16.3175 0 0116.3175 16.3175v67.733a16.3174 16.3174 0 01-16.3174 16.3174H3846.8142a16.3175 16.3175 0 01-16.3175-16.3175v-67.7329A16.3175 16.3175 0 013846.8142 1352.2904z" opacity=".72" class="coloreef2ff svgShape"/><polygon fill="#e5373a" points="3983.71 1084.341 3957.439 1031.51 3900.059 1045.442 3971.286 892.586 4054.937 931.485 3983.71 1084.341" class="colore5373a svgShape"/><polygon fill="#e6e7e8" points="4049.809 929.1 3980.489 1077.863 3983.71 1084.341 4054.937 931.485 4049.809 929.1" class="colore6e7e8 svgShape"/><polygon fill="#e5373a" points="4107.408 1082.974 4132.503 1029.575 4190.178 1042.236 4115.583 890.992 4032.814 931.73 4107.408 1082.974" class="colore5373a svgShape"/><polygon fill="#e6e7e8" points="4037.888 929.232 4110.485 1076.426 4107.408 1082.974 4032.814 931.73 4037.888 929.232" class="colore6e7e8 svgShape"/><path fill="#d1d3d4" d="M4120.1625,900.276a107.9168,107.9168,0,0,1-153.2493,1.6936l-11.3506,24.3585c6.7818.425,14.911-.7918,19.5844,2.2578,3.7079,2.4161,5.8135,7.9682,8.1105,13.1877,2.1142,4.7978,4.395,9.3142,8.212,10.8565,7.8467,3.15,19.9238-7.6765,28.4317-6.0929,7.1651,1.3359,13.6322,12.415,20.9074,15.2663l3.3222-7.1287,3.4794,7.0536c7.2102-3.0114,13.4304-14.2307,20.5642-15.7247,8.4707-1.7712,20.7845,8.7857,28.5596,5.4631,7.9101-3.3834,8.7738-19.6021,15.7861-24.3991,4.6047-3.152,12.7588-2.1152,19.5295-2.69Z" class="colord1d3d4 svgShape"/><path fill="#d11922" d="M4164.1832,842.7993c1.5458-8.2444,16.0535-15.573,15.9571-24.2823s-14.763-15.7155-16.491-23.9322c-1.7731-8.4621,8.7949-20.7631,5.4687-28.5302-1.6196-3.795-6.19-5.9644-11.0467-7.9612-5.2745-2.1786-10.8691-4.1588-13.3777-7.8084-4.8451-7.0639.2005-22.4899-5.9047-28.4553-2.5381-2.48-6.6661-3.002-11.1455-3.0882-6.2865-.1338-13.2595.5618-17.4544-2.1711-2.3922-1.5665-4.1203-4.4282-5.6575-7.6734-3.0481-6.3975-5.3657-14.2518-10.6651-16.3793-7.8467-3.15-19.9238,7.6765-28.4317,6.0929-8.2614-1.5356-15.5976-16.0283-24.316-15.9319s-15.7317,14.7476-23.9571,16.4653a10.227,10.227,0,0,1-2.8905.1676c-8.1994-.5279-18.7384-8.5965-25.6692-5.6306-7.9101,3.3834-8.7737,19.6021-15.786,24.4075-7.0627,4.84-22.5047-.2003-28.4765,5.8901-5.9715,6.0989-.5855,21.4096-5.273,28.5788-4.6542,7.1095-20.8666,8.3223-24.0693,16.2971-2.8063,6.9959,5.4932,17.3346,6.2029,25.5118a10.24651,10.24651,0,0,1-.1036,2.899c-1.5456,8.2529-16.0534,15.5814-15.9569,24.2908s14.7629,15.7154,16.4908,23.9237c1.7731,8.4621-8.7947,20.7716-5.4687,28.5386,2.2465,5.2455,10.1585,7.3949,16.6282,10.2806,3.2735,1.4804,6.1842,3.1429,7.7963,5.4891,2.8277,4.1206,2.2858,11.0999,2.559,17.384.2022,4.4715.8075,8.5827,3.3456,11.0628,6.0967,5.9655,21.4233.5851,28.6,5.2677,3.7079,2.4162,5.8135,7.9683,8.1105,13.1877,2.1142,4.7978,4.395,9.3142,8.212,10.8566,7.8467,3.15,19.9238-7.6765,28.4317-6.093,8.2614,1.5357,15.5977,16.0368,24.316,15.9404s15.7318-14.756,23.9572-16.4738c8.4707-1.7712,20.7846,8.7857,28.5596,5.4631,7.9101-3.3835,8.7738-19.6021,15.7861-24.3991,7.0627-4.8399,22.5047.2004,28.4763-5.8985s.5856-21.4096,5.2732-28.5703c4.6541-7.1095,20.8666-8.3309,24.0692-16.3056C4173.4358,863.3715,4162.5979,851.2985,4164.1832,842.7993Zm-120.3483,85.1545a107.4163,107.4163,0,0,1-43.5996-8.6606,108.56963,108.56963,0,0,1-53.3804-49.3591,107.70476,107.70476,0,0,1,2.5424-104.366,108.8009,108.8009,0,0,1,36.6682-37.4498,107.95309,107.95309,0,0,1,104.3925-4.8478,108.5784,108.5784,0,0,1,50.5791,52.22,107.11511,107.11511,0,0,1,9.6321,43.3522C4151.3282,878.3505,4103.4046,927.2955,4043.8349,927.9538Z" class="colord11922 svgShape"/><ellipse cx="4042.64" cy="820.033" fill="#f4e9d5" rx="110.831" ry="110.716" class="colorf4e9d5 svgShape"/><ellipse cx="4042.64" cy="820.033" fill="#e5373a" rx="98.631" ry="98.529" class="colore5373a svgShape"/><path fill="#dbbc8f" d="M4154.9597,823.0288a107.5858,107.5858,0,0,0-34.6977-77.9878,107.48235,107.48235,0,0,1,30.4103,73.7986c.659,59.5077-47.2678,108.456-106.8374,109.1143a107.713,107.713,0,0,1-74.53-28.7388,107.80274,107.80274,0,0,0,78.8174,32.928C4107.6918,931.4848,4155.6187,882.5365,4154.9597,823.0288Z" class="colordbbc8f svgShape"/><path fill="#e5d0ae" d="M3948.3114,826.1598a98.64581,98.64581,0,0,1,171.5544-67.416,98.58778,98.58778,0,1,0-150.1553,127.6156A98.03505,98.03505,0,0,1,3948.3114,826.1598Z" class="colore5d0ae svgShape"/><path fill="#edd9b7" d="M3083.3733,2412.6068s-9.6549,36.3504-9.6549,85.2353,9.6549,78.968,9.6549,78.968h756.9399s-6.7584-50.1384-.9655-164.2033Z" class="coloredd9b7 svgShape"/><polygon fill="#edcc9a" points="3729.862 2438.055 3824.865 2438.055 3807.931 2417.469 3736.848 2417.469 3729.862 2438.055" class="coloredcc9a svgShape"/><path fill="#291791" d="M3848.844,2421.5283v-17.843H2997.412s-54.0671,85.8391,0,185.1809h851.432v-17.843h-99.7458a12.26745,12.26745,0,0,1-11.4825-7.917c-21.0563-55.8454-10.6153-105.0345-.1786-133.5106a12.28327,12.28327,0,0,1,11.5343-8.0673Z" class="color291791 svgShape"/><path fill="#482db5" d="M3723.2054,2588.8662H2987.0813a14.92488,14.92488,0,0,1-13.4106-8.3332c-15.2932-31.3264-20.1303-61.0807-19.6958-86.9385a195.26823,195.26823,0,0,1,19.5124-81.6146,14.905,14.905,0,0,1,13.372-8.2946h736.153a4.11642,4.11642,0,0,1,3.6592,6.0087,191.65194,191.65194,0,0,0-17.6008,52.8441c-5.8122,32.1269-5.2328,74.6317,17.8035,120.3386A4.121,4.121,0,0,1,3723.2054,2588.8662Z" class="color482db5 svgShape"/><g mask="url(#D)" fill="#000000" class="color000 svgShape"><path fill="url(#E)" d="M3726.6715,2409.694a191.65194,191.65194,0,0,0-17.6008,52.8441c-414.0674-36.1682-695.6703,18.0648-755.0958,31.0564a195.26823,195.26823,0,0,1,19.5124-81.6146,14.905,14.905,0,0,1,13.372-8.2946h736.153A4.11642,4.11642,0,0,1,3726.6715,2409.694Z"/></g><g opacity=".91" fill="#000000" class="color000 svgShape"><path fill="#5945ce" d="M3061.5685 2588.8662h-28.5494c-54.0671-99.3418 0-185.1809 0-185.1809h28.5494S3007.5014 2489.5244 3061.5685 2588.8662zM3660.169 2588.8662h-28.5494c-54.0672-99.3418 0-185.1809 0-185.1809h28.5494S3606.1018 2489.5244 3660.169 2588.8662z" class="color5945ce svgShape"/></g><rect width="646.278" height="78.766" x="3137.879" y="2306.438" fill="#edd9b7" class="coloredd9b7 svgShape"/><rect width="47.631" height="17.677" x="3724.94" y="2306.589" fill="#edcc9a" class="coloredcc9a svgShape"/><path fill="#ef5816" d="M3127.9255,2287.7914h666.1844a0,0,0,0,1,0,0v9.991a8.6556,8.6556,0,0,1-8.6556,8.6556H3139.5841a11.6586,11.6586,0,0,1-11.6586-11.6586v-6.988a0,0,0,0,1,0,0Z" class="coloref5816 svgShape"/><rect width="666.184" height="18.647" x="3127.305" y="2385.204" fill="#ef5816" rx="9.323" class="coloref5816 svgShape"/><rect width="646.278" height="78.766" x="3078.662" y="2306.438" fill="#f4e9d5" class="colorf4e9d5 svgShape"/><path fill="#ff7733" d="M3068.0887,2287.7914h666.1844a0,0,0,0,1,0,0v9.991a8.6556,8.6556,0,0,1-8.6556,8.6556H3079.7473a11.6586,11.6586,0,0,1-11.6586-11.6586v-6.988a0,0,0,0,1,0,0Z" class="colorf73 svgShape"/><rect width="666.184" height="18.647" x="3068.089" y="2385.204" fill="#ff7733" rx="9.323" class="colorf73 svgShape"/><g mask="url(#F)" fill="#000000" class="color000 svgShape"><path fill="url(#G)" d="M3079.5756,2385.3553c-6.8366,2.5302,179.7048-63.9356,646.2775-61.084v-17.6822H3079.5756Z"/></g><rect width="418.511" height="97.885" x="3232.249" y="1819.358" fill="url(#p)" transform="rotate(-78.02 3441.505 1868.3)"/><rect width="418.511" height="65.371" x="3216.345" y="1832.247" transform="rotate(-78.02 3425.6 1864.933)" style="mix-blend-mode:multiply" fill="url(#H)"/><path fill="#003084" d="M3322.6068 1831.4251l-38.2942 6.0629c-1.3212-18.4888-2.2342-37.5786-2.6209-57.1189l26.5427-4.024C3313.6375 1795.0378 3318.4069 1813.4622 3322.6068 1831.4251zM3354.3916 2080.8254l-6.6277 1.0087-13.266 2.0066-6.6383.9979s-16.5745-52.4082-29.905-132.7265l45.663-6.9105C3354.6816 2025.8526 3354.3916 2080.8254 3354.3916 2080.8254z" class="color003084 svgShape"/><path fill="#004787" d="M3343.6176,1945.2016l-45.663,6.9105q-1.12785-6.84075-2.2343-13.9498c-4.0496-26.1933-7.6696-54.9942-10.2476-85.6515q-.35445-4.2333-.6767-8.5094c-.0859-1.1696-.1826-2.35-.2578-3.5303-.086-.9873-.1504-1.9852-.2256-2.9831l38.2942-6.0629c.2578,1.0624.5049,2.1247.7412,3.1763.2686,1.1482.5371,2.2964.7949,3.4446q.9507,4.18485,1.8584,8.3376c6.6383,30.0456,11.7191,58.6212,15.6184,84.836q.6123,4.15275,1.1816,8.2196Q3343.22025,1942.33645,3343.6176,1945.2016Z" class="color004787 svgShape"/><path fill="#1578d1" d="M3343.6176,1945.2016l-45.663,6.9105q-1.12785-6.84075-2.2343-13.9498l45.8994-6.9427q.6123,4.15275,1.1816,8.2196Q3343.22025,1942.33645,3343.6176,1945.2016Z" class="color1578d1 svgShape"/><polygon fill="#ffe0b6" points="3308.234 1776.345 3281.692 1780.369 3280.349 1771.484 3306.892 1767.471 3308.234 1776.345" class="colorffe0b6 svgShape"/><path fill="#1578d1" d="M3291.204 1753.5411l.0096-.0014a13.41634 13.41634 0 0115.2717 11.2544l.4058 2.6765-26.5405 4.0153-.4045-2.6684A13.4164 13.4164 0 013291.204 1753.5411zM3326.0013 1846.3836l-40.5286 6.1272q-.35445-4.2333-.6767-8.5094l39.3469-5.9554Q3325.0936 1842.23085 3326.0013 1846.3836zM3323.348 1834.6014l-38.8098 5.8697c-.086-.9873-.1504-1.9852-.2256-2.9831l38.2942-6.0629C3322.8646 1832.4875 3323.1117 1833.5498 3323.348 1834.6014z" class="color1578d1 svgShape"/><path fill="#065093" d="M3308.2372,1776.3499l-6.6378,1.0042-3.0483.4612c46.9215,162.4498,46.1594,304.4765,46.1594,304.4765l3.0484-.4612,6.6376-1.0042S3355.1586,1938.7997,3308.2372,1776.3499Z" opacity=".24" class="color065093 svgShape"/><path fill="#002254" d="M3295.5545,1916.9938a9.28076,9.28076,0,0,1-10.215-8.2209l-11.1955-103.9156a9.30347,9.30347,0,0,1,7.3011-10.0524,8.60134,8.60134,0,0,1,.9283-.1521c.1819-.0195.3638-.039.5462-.0478a9.29951,9.29951,0,0,1,9.6581,8.2693l11.1956,103.9156A9.28093,9.28093,0,0,1,3295.5545,1916.9938Z" class="color002254 svgShape"/><path fill="#003084" d="M3293.5001,1916.9853a9.29854,9.29854,0,0,1-8.1606-8.2124l-11.1955-103.9156a7.8821,7.8821,0,1,1,15.451-1.8395l11.1956,103.9156A9.2948,9.2948,0,0,1,3293.5001,1916.9853Z" class="color003084 svgShape"/><rect width="260.246" height="15.929" x="3224.569" y="1864.457" fill="#ff7db2" transform="rotate(-86.359 3354.692 1872.421)" class="colorff7db2 svgShape"/><rect width="260.246" height="15.929" x="3240.466" y="1865.468" fill="#fb679b" transform="rotate(-86.359 3370.589 1873.433)" class="colorfb679b svgShape"/><rect width="260.246" height="15.929" x="3256.363" y="1866.48" fill="#f2518e" transform="rotate(-86.359 3386.485 1874.444)" class="colorf2518e svgShape"/><polygon fill="#ffe0b6" points="3402.714 1745.091 3382.371 1688.654 3355.024 1742.056 3355.024 1742.056 3355.024 1742.056 3362.409 1751.4 3370.921 1743.068 3370.921 1743.068 3370.921 1743.068 3370.921 1743.068 3378.306 1752.411 3386.818 1744.079 3386.817 1744.079 3386.818 1744.079 3386.818 1744.079 3394.202 1753.423 3402.714 1745.091 3402.714 1745.091 3402.714 1745.091" class="colorffe0b6 svgShape"/><polygon fill="#f7cc9a" points="3382.371 1688.654 3386.818 1744.079 3394.202 1753.423 3402.714 1745.091 3382.371 1688.654" class="colorf7cc9a svgShape"/><polygon fill="#fcd2a9" points="3386.818 1744.079 3382.371 1688.654 3370.921 1743.068 3378.306 1752.411 3386.818 1744.079" class="colorfcd2a9 svgShape"/><polygon fill="#7a7b7c" points="3382.371 1688.654 3373.23 1706.504 3389.171 1707.519 3382.371 1688.654" class="color7a7b7c svgShape"/><polygon fill="#666666" points="3382.371 1688.654 3378.544 1706.843 3383.858 1707.181 3382.371 1688.654" class="color666 svgShape"/><polygon fill="#4c4c4c" points="3382.371 1688.654 3383.858 1707.181 3389.171 1707.519 3382.371 1688.654" class="color4c4c4c svgShape"/><rect width="15.925" height="260.316" x="3426.08" y="1820.739" fill="#ff9f48" transform="rotate(30.994 3434.042 1950.897)" class="colorff9f48 svgShape"/><rect width="260.316" height="15.925" x="3317.535" y="1951.135" fill="#4c4c4c" transform="rotate(-59.006 3447.693 1959.097)" class="color4c4c4c svgShape"/><rect width="15.925" height="260.316" x="3453.381" y="1837.139" fill="#ff9f48" transform="rotate(30.994 3461.344 1967.297)" class="colorff9f48 svgShape"/><polygon fill="#ffe0b6" points="3535.296 1859.884 3543.208 1800.423 3494.343 1835.283 3494.343 1835.284 3494.343 1835.284 3496.6 1846.973 3507.994 1843.484 3507.994 1843.484 3507.994 1843.484 3507.994 1843.484 3510.251 1855.173 3521.645 1851.684 3521.645 1851.684 3521.645 1851.684 3521.645 1851.684 3523.902 1863.373 3535.296 1859.885 3535.296 1859.884 3535.296 1859.884" class="colorffe0b6 svgShape"/><polygon fill="#f7cc9a" points="3543.208 1800.423 3521.645 1851.684 3523.902 1863.373 3535.296 1859.884 3543.208 1800.423" class="colorf7cc9a svgShape"/><polygon fill="#fcd2a9" points="3521.645 1851.684 3543.208 1800.423 3507.994 1843.484 3510.251 1855.173 3521.645 1851.684" class="colorfcd2a9 svgShape"/><polygon fill="#7a7b7c" points="3543.208 1800.423 3526.874 1812.076 3540.563 1820.299 3543.208 1800.423" class="color7a7b7c svgShape"/><polygon fill="#666666" points="3543.208 1800.423 3531.437 1814.817 3536.001 1817.558 3543.208 1800.423" class="color666 svgShape"/><polygon fill="#4c4c4c" points="3543.208 1800.423 3536.001 1817.558 3540.563 1820.299 3543.208 1800.423" class="color4c4c4c svgShape"/><path fill="#ffc236" fill-rule="evenodd" d="M3501.8622,2275.7218a13.74581,13.74581,0,0,1-13.7601,13.7459H3299.8327a13.74449,13.74449,0,0,1-13.4486-10.8594,13.42774,13.42774,0,0,1-.3115-2.8865,13.74581,13.74581,0,0,1,13.7601-13.7459h188.2694A13.74574,13.74574,0,0,1,3501.8622,2275.7218Z" class="colorffc236 svgShape"/><path fill="#ffc145" fill-rule="evenodd" d="M3523.1154,1963.0159l-37.0307,291.5085a8.53057,8.53057,0,0,1-8.4657,7.4515H3303.5746a8.53048,8.53048,0,0,1-8.4692-7.4798l-9.2477-74.8023-26.3494-213.2167a11.6362,11.6362,0,0,1,5.7898-11.5246l.0107-.0108a11.58087,11.58087,0,0,1,5.7576-1.5237h243.5834A8.52779,8.52779,0,0,1,3523.1154,1963.0159Z" class="colorffc145 svgShape"/><g mask="url(#I)" fill="#000000" class="color000 svgShape"><path fill="url(#J)" fill-rule="evenodd" d="M3523.4056,1962.4222l-38.0527,299.5537H3299.8327l-10.2261-85.3296c86.17-74.7385,134.8623-165.3905,159.3534-223.2283h66.5036A8.00033,8.00033,0,0,1,3523.4056,1962.4222Z"/></g><path d="M3501.2231,2275.7218a13.74581,13.74581,0,0,1-13.7601,13.7459H3299.8327a13.74449,13.74449,0,0,1-13.4486-10.8594c41.8175-4.1098,63.6768-10.8057,75.1168-16.6324H3487.463A13.74581,13.74581,0,0,1,3501.2231,2275.7218Z" style="mix-blend-mode:multiply" fill="#ffc236" fill-rule="evenodd" opacity=".71" class="colorffc236 svgShape"/><path d="M3326.2056,2470.0086a1780.27548,1780.27548,0,0,0-41.4561-190.1579q-3.8733-14.22495-7.9237-28.2222-5.77185-20.02875-11.8473-39.6275-4.367-14.0352-8.8096-27.8177h-.0253c-.2535-.7838-.5064-1.5931-.785-2.3771q-4.7847-14.7936-9.6958-29.2337-7.4802-22.115-15.189-43.4207c-3.5185-9.8121-7.0881-19.4723-10.6319-28.9809-32.0236-85.577-64.9328-159.6224-91.4629-215.207-38.6813-81.0756-105.5382-164.326-180.1669-214.4483-50.7817-34.1144-72.4005-45.0645-108.8546-67.4451-22.682-13.8834-62.4011-31.8637-66.8817-34.0133a.63881.63881,0,0,0-.1772-.1012c-.0823-.041-.1293-.0608-.1645-.0821l-.0316-.0189a.07686.07686,0,0,0-.05-.0254c-38.5296-14.5156-94.4252-35.3789-125.512-46.2529l-13.0563-139.993a276.953,276.953,0,0,0,16.6942-40.5998,7.50163,7.50163,0,0,0,3.2527-1.363c57.9851-11.6229,77.7673-81.186,66.6601-125.6363,20.3893-42.4999,61.6992-140.3423,49.6479-213.6638-15.8248-96.2806-85.4655-68.2-85.4655-68.2-14.8062-79.2261-124.3794-62.4563-124.3794-62.4563-18.7667-52.4165-83.3019-81.5986-166.7291-63.9232-49.108,10.4042-77.6749,56.2127-86.8025,73.3442a68.76639,68.76639,0,0,1-10.9531,7.249,76.56966,76.56966,0,0,0-41.6573,18.9614c-4.8842,2.0628-9.9842,4.2157-15.3401,6.5045-46.0435,19.6705-23.4946,72.9034-23.4946,72.9034-14.6625-2.5119-13.8793-17.9006-13.8229-19.0032-13.1439,26.3763,1.7943,59.8591,1.7943,59.8591a84.57466,84.57466,0,0,0,9.84,13.1714,53.44681,53.44681,0,0,0,24.4011,41.2853l10.0083,6.4352a362.8282,362.8282,0,0,0-8.5229,51.0848s1.5927,17.431,5.1193,44.7236c-.0242.019-.0542.0367-.0783.0559-6.5343,5.1091-8.9032,10.4813-7.4146,13.1817,1.4199,2.3136,4.8593,2.8457,9.6351,2.7479,2.5197,18.1849,5.7379,39.3345,9.734,61.9032,3.4173,19.181,7.4198,39.4246,11.9851,59.7449,4.056,17.9522,8.6084,35.9247,13.6671,53.2982,13.7708,47.4535,31.4107,90.101,53.4699,114.0602-9.3981,33.67-32.974,67.2527-47.3432,99.3662-.3232.1199,8.1709-1.2573,7.8481-1.1371l-.0467.0179-28.2233,9.4148,1.1374,1.2119-.0049.002c-133.182,54.9776-222.797,151.783-222.797,151.783s-66.5785,67.6473-122.4992,177.2232l-3.1373,6.7222H1139.5753a9.32815,9.32815,0,0,0-8.8848,12.1919l203.6427,630.1511v23.5153a8.32249,8.32249,0,0,0,8.3268,8.3182H3230.8759a103.282,103.282,0,0,0,82.5944-41.2518h.0003A83.65518,83.65518,0,0,0,3326.2056,2470.0086ZM2423.6395,1030.8715l-.8639,2.4116c-.4089-.5984-.8189-1.198-1.2245-1.7917C2422.2511,1031.2852,2422.9553,1031.0807,2423.6395,1030.8715Zm-33.1406,467.7492a150.54261,150.54261,0,0,0,37.4718,3.2227l1.8484,19.6997-123.555,41.2301,39.936-84.1111A111.26984,111.26984,0,0,0,2390.4989,1498.6207Z" style="mix-blend-mode:multiply" fill="#cccccc" class="colorccc svgShape"/><path fill="#f9b698" d="M2791.2046,1573.385l-10.278,80.9239-365.8013,102.4193-168.3191-179.6005-1.1392-1.2138,28.2767-9.4328,48.9592-16.3617h.0254l85.5899-28.5762-9.8476-104.9482,207.5827-117.5926,18.9862,203.5742c31.0869,10.8741,86.9822,31.7373,125.5118,46.253a.07752.07752,0,0,1,.0504.0253C2751.7637,1549.4365,2767.4335,1558.8187,2791.2046,1573.385Z" class="colorf9b698 svgShape"/><path fill="#fcfefb" d="M2314.5321,1445.941c-17.234,84.1261-72.4599,155.6706-84.2346,241.3395-5.3709,39.0764.6957,77.4927,16.0432,113.6956,14.9994,35.3818,36.9692,67.2626,60.0356,97.8011,23.922,31.6713,52.625,62.0733,68.3638,98.9616,17.4079,40.8005,11.7147,87.7906,10.6455,130.9654q-1.72155,69.5169-3.4432,139.0339c-1.0567,42.6703-4.7381,86.4794,1.9038,128.8549,5.8145,37.0967,22.6448,69.7552,48.7369,96.6312,24.4799,25.2154,54.3939,44.5746,84.6346,62.1166,7.6438,4.434,15.3497,8.7593,23.0718,13.0551,4.7136,2.6223,8.9415-4.6074,4.2263-7.2304-60.3465-33.5708-127.8182-73.2381-147.7468-144.2501-11.5148-41.0308-8.0458-84.8537-7.0038-126.9319q1.6803-67.8486,3.3605-135.697c.5662-22.8635,1.1835-45.7263,1.6934-68.5911.4681-20.9913.4783-42.1641-3.6159-62.8463-7.8522-39.6662-33.4773-71.42-57.7198-102.5049-45.737-58.6462-96.3466-123.9417-96.9501-201.9169-.6705-86.6469,53.7661-160.2521,78.4258-240.4071q4.5354-14.7417,7.6475-29.8532c1.0776-5.2601-6.9921-7.5099-8.0745-2.226Z" class="colorfcfefb svgShape"/><path fill="#fbbd9d" d="M2385.7721,1077.1202l36.4626-101.7936,122.3251,18.8674,53.4997,90.3227-.9595,124.1311-1.1969,16.3628S2395.2302,1165.544,2385.7721,1077.1202Z" class="colorfbbd9d svgShape"/><path fill="#4c3116" d="M2278.2346,995.5282l-65.596-16.3195s-14.5235-8.6069-11.6806-31.4709,21.8941-78.2254,80.8678-81.1468c0,0,29.3299-66.9878,90.0383-79.8497,83.4273-17.6753,147.9625,11.5068,166.7294,63.9232,0,0,109.5728-16.7698,124.3791,62.4564,0,0,69.6408-28.0806,85.4656,68.1999s-60.37,234.8656-60.37,234.8656-139.245-267.3078-217.4347-266.4702S2278.2346,995.5282,2278.2346,995.5282Z" class="color4c3116 svgShape"/><path fill="#4c3116" d="M2215.829,1061.0165a53.58875,53.58875,0,0,1-22.9291-58.1105c11.1157-44.649,43.1558-115.3571,135.4989-148.5198,185.9365-66.7744,199.371,30.1619,199.371,30.1619s103.2901-23.2703,153.0878,89.9587c66.8548,152.0134-38.3022,296.8195-38.3022,296.8195l-105.4778-264.7105-105.6361,1.3137-75.4342,51.0714-107.308,23.1505Z" class="color4c3116 svgShape"/><path fill="#ffceb8" d="M2217.3145,1118.5364s5.0266,55.017,16.9955,122.6124c3.4172,19.1809,7.4197,39.4245,11.985,59.7447,4.056,17.9523,8.6085,35.9248,13.6672,53.2982,15.3712,52.9688,35.5585,99.9684,61.3377,121.6495,13.4529,11.2869,29.81,18.8679,47.8981,22.7796,41.9941,9.3099,93.4833-.786,140.1073-28.8899.8238-.5023,1.5862-.999,2.4096-1.5012a255.27519,255.27519,0,0,0,70.6643-64.9934,269.92909,269.92909,0,0,0,41.1287-81.3502s31.8099-8.6812,50.6534-41.1761l-.0052-.0615c8.0984-13.9725,13.7752-32.4377,13.475-56.4555-1.0198-74.2065-49.9965-69.5144-68.8669-42.4563a39.92163,39.92163,0,0,0-3.7759,6.5614s-.6422-1.7384-1.8282-4.7901c-2.7638.975-5.6345,2.1443-8.6179,3.4469-90.5942,40.779-177.8339-106.9293-227.9655-178.0393-24.181-34.239-42.1842-44.4619-54.3714-45.9053a173.88651,173.88651,0,0,0-19.4419,7.1427C2241.674,996.9441,2224.2998,1051.1946,2217.3145,1118.5364Z" class="colorffceb8 svgShape"/><path fill="#fbbd9d" d="M2693.8756,1221.5363c.3312,24.0308-5.3505,42.4406-13.4388,56.4415-.0261.0112-.015.0373-.03.0746-18.8059,32.4862-50.6058,41.1768-50.6058,41.1768a270.4831,270.4831,0,0,1-41.1696,81.3359c-72.5964,97.4928-198.5982,125.1391-261.0469,72.633-25.7836-21.6852-45.9607-68.694-61.3395-121.6967-10.7687-36.906-19.2166-76.7758-25.6448-112.9981-11.978-67.6324-17.0054-122.665-17.0054-122.665,6.9808-67.3062,24.3754-121.5729,85.4265-148.3344l.0259-.011a168.1343,168.1343,0,0,1,19.4259-7.1275c12.1814,1.3898,30.2054,11.6219,54.3691,45.8818,50.1329,71.0852,137.4003,218.7892,227.9627,178.0445,2.9593-1.3213,5.8321-2.4827,8.5929-3.4728,1.2255,3.0903,1.8605,4.7956,1.8605,4.7956a42.781,42.781,0,0,1,3.776-6.5776C2643.8779,1151.9988,2692.9082,1147.3335,2693.8756,1221.5363Z" class="colorfbbd9d svgShape"/><path fill="#fc9e8b" d="M2271.4603,1314.0041a86.08431,86.08431,0,0,1-6.7346,30.6695c-8.973-31.9368-16.277-65.771-22.0757-97.3176C2260.9878,1262.9077,2272.3768,1287.1751,2271.4603,1314.0041Z" class="colorfc9e8b svgShape"/><path fill="#fc9e8b" d="M2271.2655,1311.7427a85.47615,85.47615,0,0,1-11.4807,40.165c-.6375-2.2032-1.2833-4.4289-1.9288-6.654-8.9731-31.9368-16.2771-65.771-22.0757-97.3176-.5556-3.0211-1.0901-6.0506-1.6274-9.0289C2257.2679,1253.6878,2272.3242,1281.04,2271.2655,1311.7427Z" class="colorfc9e8b svgShape"/><ellipse cx="2502.647" cy="1248.822" fill="#fc9e8b" rx="81.878" ry="77.191" transform="rotate(-88.013 2502.647 1248.822)" class="colorfc9e8b svgShape"/><path fill="#263238" d="M2253.3709 1236.2392c2.6365 11.5448 11.8441 19.4147 20.5685 17.6012 8.706-1.8145 13.6474-12.6202 11.0087-24.1669-2.6373-11.5445-11.8467-19.4317-20.5547-17.6216C2255.6701 1213.8663 2250.733 1224.6923 2253.3709 1236.2392zM2396.4146 1214.492c2.5879 11.1183 12.0714 18.5433 21.1825 16.6059 9.0948-1.934 14.3915-12.4975 11.8039-23.6184-2.5882-11.1195-12.075-18.5569-21.1731-16.6245C2399.1174 1192.791 2393.8258 1203.3738 2396.4146 1214.492z" class="color263238 svgShape"/><path fill="#4c3116" d="M2353.7737 1165.4928c4.9267 5.4132 27.0747-7.1997 55.913-15.1661 28.6833-8.5488 54.1483-9.6065 55.4475-16.8068.5027-3.3981-5.8199-7.7971-17.3156-10.2807-11.4068-2.5063-27.9829-2.5356-45.2346 2.3998-17.2365 4.9691-31.2667 13.7844-39.6029 21.9578C2354.562 1155.7973 2351.5388 1162.8806 2353.7737 1165.4928zM2214.9409 1176.4976c3.4093 5.5554 18.3427.8963 35.9208 1.692 17.6056.1069 32.2119 5.5268 35.9703.1533 1.6631-2.6186-.3558-8.1013-6.5521-13.5401-6.0976-5.4162-16.5595-10.169-28.6514-10.4901-12.0889-.2983-22.8373 3.906-29.273 9.0032C2215.8211 1168.4251 2213.4522 1173.7972 2214.9409 1176.4976z" class="color4c3116 svgShape"/><path fill="#ff806d" d="M2318.7119 1324.3107c.4045-.0378.8141-.088 1.2225-.1505l15.9464-2.4533a3.1022 3.1022 0 10-.9405-6.1327l-15.9464 2.4533c-4.6708.7355-9.362-.883-13.3414-4.4727a25.89587 25.89587 0 01-7.9153-15.3463l-.2796-1.8118c-.7358-4.7944 1.5793-9.1494 5.1646-9.7042a18.19461 18.19461 0 0012.9189-9.206 25.94936 25.94936 0 002.9996-17.0728l-4.1285-25.8465a3.226 3.226 0 00-3.5563-2.5766 3.10491 3.10491 0 00-2.5794 3.552l4.1275 25.8284a19.73323 19.73323 0 01-2.2262 12.9774 12.07816 12.07816 0 01-8.5022 6.212c-6.9721 1.0785-11.6166 8.6037-10.357 16.7758l.2796 1.8118a32.13056 32.13056 0 009.885 19.0081C2306.5362 1322.723 2312.6057 1324.8819 2318.7119 1324.3107zM2341.8989 1386.2441s40.9349 2.0439 90.9457-20.7743C2432.8446 1365.4698 2387.5811 1413.8404 2341.8989 1386.2441z" class="colorff806d svgShape"/><path fill="#4c3116" d="M2379.535,1023.127s44.9223-5.6893,112.958,3.1557,63.2536,192.5018,99.0001,186.5483,36.3696-46.0025,36.3696-46.0025l-81.7963-225.9089-238.8149-46.2881-68.6161,113.6805S2254.5906,1059.0011,2379.535,1023.127Z" class="color4c3116 svgShape"/><path fill="#4c3116" d="M2437.9823,1016.1253s-.5752.336-1.6634.909c-10.5624,5.7236-70.3444,35.4194-137.7277,16.6075,0,0-78.7286,35.7017-117.0033-27.0821,0,0-14.9382-33.4827-1.7943-59.8591-.0563,1.1025-.8395,16.4912,13.8229,19.0033,0,0-22.5489-53.2331,23.4946-72.9036,36.4676-15.5836,62.4893-25.4555,71.4021-36.0829a14.52464,14.52464,0,0,0,2.6427-4.2728c-1.6946,11.8129-4.1105,44.657,19.768,55.1385,0,0-6.9202-11.018.0047-29.7842,0,0,38.7515,93.4311,104.5588,122.6442a69.221,69.221,0,0,1,21.559,14.7228Z" class="color4c3116 svgShape"/><path fill="#35200d" d="M2437.0464,1015.1659l-.7275,1.8684c-10.5624,5.7236-70.3444,35.4194-137.7277,16.6075,0,0-78.7286,35.7017-117.0033-27.0821,0,0-14.9382-33.4827-1.7943-59.8591-.0563,1.1025-.8395,16.4912,13.8229,19.0033,0,0-22.5489-53.2331,23.4946-72.9036,36.4676-15.5836,62.4893-25.4555,71.4021-36.0829-5.1768,9.6555-13.8748,20.5656-28.0421,27.1783-29.7437,13.853-35.7374,32.1083-35.7374,32.1083-18.3648,50.8348,55.2177,80.9454,55.2177,80.9454-9.2762-17.1834-.0315-38.5104-.0315-38.5104C2302.3383,1023.9391,2437.0464,1015.1659,2437.0464,1015.1659Z" class="color35200d svgShape"/><path fill="#fbbd9d" d="M2616.9231,1193.8581s-5.6058-35.7829,43.8432-36.353c61.2911-.7067,57.7543,155.3483-37.2584,164.381s-10.2555-43.4498-10.2555-43.4498Z" class="colorfbbd9d svgShape"/><path fill="#35200d" d="M2499.4806,931.8902s107.147,7.2347,121.4703,65.6873c5.7672,23.5354,4.7856,37.2495,7.405,52.7155,6.75,39.8542,10.7227,62.7779,17.616,83.363,0,0-16.945-38.7871-29.6945-126.2046C2607.5191,947.3997,2499.4806,931.8902,2499.4806,931.8902Z" class="color35200d svgShape"/><path fill="#35200d" d="M2508.5431,928.9651s103.1364-18.7732,123.3472,27.8684c8.1377,18.7799,8.7328,30.7343,12.9626,43.348,10.8999,32.5038,17.2555,51.1785,26.139,67.1735,0,0-20.517-29.2166-42.4615-100.9904C2613.4556,917.0594,2508.5431,928.9651,2508.5431,928.9651Z" class="color35200d svgShape"/><path fill="#ff806d" d="M2649.6883,1270.6808a4.81724,4.81724,0,0,1-2.9953-2.0826l-15.9939-24.1292,34.3628-26.8889a4.7884,4.7884,0,0,1,7.0562,1.0987,5.75307,5.75307,0,0,1-1.252,7.597l-26.0776,20.4059,10.2287,15.4441a5.7433,5.7433,0,0,1-1.2718,7.5927A4.872,4.872,0,0,1,2649.6883,1270.6808Z" class="colorff806d svgShape"/><path fill="#fcad2d" d="M2279.4809,2428.2195l-174.7997-79.8112-337.6257-154.1852,5.8986-12.6444,11.8726-25.4657,17.1636-36.7698,11.8219-25.314,87.6911-187.8953c55.9207-109.5759,122.4991-177.2232,122.4991-177.2232Z" class="colorfcad2d svgShape"/><path fill="#fff2dc" d="M2165.8169 2218.0197v23.5944a581.41451 581.41451 0 01-71.1099-8.5982c-125.7646-22.6839-237.6566-81.1514-292.7167-113.6727l11.8219-25.314c108.1961 67.4703 211.7851 97.235 278.2876 111.1186C2135.2109 2214.1253 2162.7286 2216.4518 2165.8169 2218.0197zM2140.502 2282.4555v23.6196q-19.9356-1.138-39.6684-3.7174c-141.2576-18.1068-269.9084-86.184-327.8795-120.779l11.8726-25.4657c128.7519 81.278 251.5041 108.8932 313.6775 119.4892C2123.1359 2279.8 2138.2489 2281.3175 2140.502 2282.4555z" class="colorfff2dc svgShape"/><path fill="#ffbf4d" d="M3306.7876,2481.8317l-18.6571-17.9297-226.3159,120.6018H2121.8952s-11.3411-186.226-30.8334-390.2807c-10.5562-110.7899-23.5431-226.8398-38.3773-321.1667l-28.6821-144.1457s89.6151-96.8053,222.7971-151.783q13.2903-5.50035,27.1375-10.6466,23.73285-8.8383,48.9594-16.3617h.0253s-23.5937,125.6849,102.652,153.5025,325.1709-154.7923,325.1709-154.7923a.07849.07849,0,0,1,.0507.0253,1.36356,1.36356,0,0,0,.2021.1011.63846.63846,0,0,1,.1774.1013c4.4808,2.1495,44.1998,20.1297,66.8819,34.0132,36.4539,22.3806,58.0727,33.3307,108.8544,67.4451,74.6288,50.1223,141.4857,133.3727,180.167,214.4483,26.53,55.5846,59.4395,129.63,91.4627,215.207,3.5441,9.5086,7.1136,19.1689,10.6321,28.9809q7.67055,21.28035,15.189,43.4207,4.89855,14.4525,9.6958,29.2337c.2785.784.5316,1.5932.7849,2.3772h.0254q4.4424,13.7697,8.8095,27.8176,6.0375,19.57365,11.8473,39.6275,4.02525,13.9974,7.9236,28.2222C3281.2702,2344.9944,3296.4338,2412.9958,3306.7876,2481.8317Z" class="colorffbf4d svgShape"/><path fill="#fcfefb" d="M2314.5321,1445.941c-17.234,84.1261-72.4599,155.6706-84.2346,241.3395-5.3709,39.0764.6957,77.4927,16.0432,113.6956,14.9994,35.3818,36.9692,67.2626,60.0356,97.8011,23.922,31.6713,52.625,62.0733,68.3638,98.9616,17.4079,40.8005,11.7147,87.7906,10.6455,130.9654q-1.72155,69.5169-3.4432,139.0339c-1.0567,42.6703-4.7381,86.4794,1.9038,128.8549,5.8145,37.0967,22.6448,69.7552,48.7369,96.6312,24.4799,25.2154,54.3939,44.5746,84.6346,62.1166,7.6438,4.434,15.3497,8.7593,23.0718,13.0551,4.7136,2.6223,8.9415-4.6074,4.2263-7.2304-60.3465-33.5708-127.8182-73.2381-147.7468-144.2501-11.5148-41.0308-8.0458-84.8537-7.0038-126.9319q1.6803-67.8486,3.3605-135.697c.5662-22.8635,1.1835-45.7263,1.6934-68.5911.4681-20.9913.4783-42.1641-3.6159-62.8463-7.8522-39.6662-33.4773-71.42-57.7198-102.5049-45.737-58.6462-96.3466-123.9417-96.9501-201.9169-.6705-86.6469,53.7661-160.2521,78.4258-240.4071q4.5354-14.7417,7.6475-29.8532c1.0776-5.2601-6.9921-7.5099-8.0745-2.226Z" class="colorfcfefb svgShape"/><path fill="#fbbd9d" d="M2385.7721,1077.1202l36.4626-101.7936,122.3251,18.8674,53.4997,90.3227-.9595,124.1311-1.1969,16.3628S2395.2302,1165.544,2385.7721,1077.1202Z" class="colorfbbd9d svgShape"/><path fill="#4c3116" d="M2278.2346,995.5282l-65.596-16.3195s-14.5235-8.6069-11.6806-31.4709,21.8941-78.2254,80.8678-81.1468c0,0,29.3299-66.9878,90.0383-79.8497,83.4273-17.6753,147.9625,11.5068,166.7294,63.9232,0,0,109.5728-16.7698,124.3791,62.4564,0,0,69.6408-28.0806,85.4656,68.1999s-60.37,234.8656-60.37,234.8656-139.245-267.3078-217.4347-266.4702S2278.2346,995.5282,2278.2346,995.5282Z" class="color4c3116 svgShape"/><path fill="#4c3116" d="M2238.6354,1008.312s-50.8702-103.4207,89.7634-153.9258c185.9365-66.7744,199.371,30.1619,199.371,30.1619s103.2901-23.2703,153.0878,89.9587c66.8548,152.0134-38.3022,296.8195-38.3022,296.8195l-105.4778-264.7105-105.6361,1.3137-75.4342,51.0714-107.308,23.1505Z" class="color4c3116 svgShape"/><path fill="#ffceb8" d="M2217.3145,1118.5364s5.0266,55.017,16.9955,122.6124c3.4172,19.1809,7.4197,39.4245,11.985,59.7447,4.056,17.9523,8.6085,35.9248,13.6672,53.2982,15.3712,52.9688,35.5585,99.9684,61.3377,121.6495,13.4529,11.2869,29.81,18.8679,47.8981,22.7796,41.9941,9.3099,93.4833-.786,140.1073-28.8899.8238-.5023,1.5862-.999,2.4096-1.5012a255.27519,255.27519,0,0,0,70.6643-64.9934,269.92909,269.92909,0,0,0,41.1287-81.3502s31.8099-8.6812,50.6534-41.1761l-.0052-.0615c8.0984-13.9725,13.7752-32.4377,13.475-56.4555-1.0198-74.2065-49.9965-69.5144-68.8669-42.4563a39.92163,39.92163,0,0,0-3.7759,6.5614s-.6422-1.7384-1.8282-4.7901c-2.7638.975-5.6345,2.1443-8.6179,3.4469-90.5942,40.779-177.8339-106.9293-227.9655-178.0393-24.181-34.239-42.1842-44.4619-54.3714-45.9053a173.88651,173.88651,0,0,0-19.4419,7.1427C2241.674,996.9441,2224.2998,1051.1946,2217.3145,1118.5364Z" class="colorffceb8 svgShape"/><path fill="#fbbd9d" d="M2693.8756,1221.5363c.3312,24.0308-5.3505,42.4406-13.4388,56.4415-.0261.0112-.015.0373-.03.0746-18.8059,32.4862-50.6058,41.1768-50.6058,41.1768a270.4831,270.4831,0,0,1-41.1696,81.3359c-72.5964,97.4928-198.5982,125.1391-261.0469,72.633-25.7836-21.6852-45.9607-68.694-61.3395-121.6967-10.7687-36.906-19.2166-76.7758-25.6448-112.9981-11.978-67.6324-17.0054-122.665-17.0054-122.665,6.9808-67.3062,24.3754-121.5729,85.4265-148.3344l.0259-.011a168.1343,168.1343,0,0,1,19.4259-7.1275c12.1814,1.3898,30.2054,11.6219,54.3691,45.8818,50.1329,71.0852,137.4003,218.7892,227.9627,178.0445,2.9593-1.3213,5.8321-2.4827,8.5929-3.4728,1.2255,3.0903,1.8605,4.7956,1.8605,4.7956a42.781,42.781,0,0,1,3.776-6.5776C2643.8779,1151.9988,2692.9082,1147.3335,2693.8756,1221.5363Z" class="colorfbbd9d svgShape"/><path fill="#fc9e8b" d="M2271.4603,1314.0041a86.08431,86.08431,0,0,1-6.7346,30.6695c-8.973-31.9368-16.277-65.771-22.0757-97.3176C2260.9878,1262.9077,2272.3768,1287.1751,2271.4603,1314.0041Z" class="colorfc9e8b svgShape"/><path fill="#fc9e8b" d="M2271.2655,1311.7427a85.47615,85.47615,0,0,1-11.4807,40.165c-.6375-2.2032-1.2833-4.4289-1.9288-6.654-8.9731-31.9368-16.2771-65.771-22.0757-97.3176-.5556-3.0211-1.0901-6.0506-1.6274-9.0289C2257.2679,1253.6878,2272.3242,1281.04,2271.2655,1311.7427Z" class="colorfc9e8b svgShape"/><ellipse cx="2502.647" cy="1248.822" fill="#fc9e8b" rx="81.878" ry="77.191" transform="rotate(-88.013 2502.647 1248.822)" class="colorfc9e8b svgShape"/><path fill="#263238" d="M2253.3709 1236.2392c2.6365 11.5448 11.8441 19.4147 20.5685 17.6012 8.706-1.8145 13.6474-12.6202 11.0087-24.1669-2.6373-11.5445-11.8467-19.4317-20.5547-17.6216C2255.6701 1213.8663 2250.733 1224.6923 2253.3709 1236.2392zM2396.4146 1214.492c2.5879 11.1183 12.0714 18.5433 21.1825 16.6059 9.0948-1.934 14.3915-12.4975 11.8039-23.6184-2.5882-11.1195-12.075-18.5569-21.1731-16.6245C2399.1174 1192.791 2393.8258 1203.3738 2396.4146 1214.492z" class="color263238 svgShape"/><path fill="#4c3116" d="M2353.7737 1165.4928c4.9267 5.4132 27.0747-7.1997 55.913-15.1661 28.6833-8.5488 54.1483-9.6065 55.4475-16.8068.5027-3.3981-5.8199-7.7971-17.3156-10.2807-11.4068-2.5063-27.9829-2.5356-45.2346 2.3998-17.2365 4.9691-31.2667 13.7844-39.6029 21.9578C2354.562 1155.7973 2351.5388 1162.8806 2353.7737 1165.4928zM2214.9409 1176.4976c3.4093 5.5554 18.3427.8963 35.9208 1.692 17.6056.1069 32.2119 5.5268 35.9703.1533 1.6631-2.6186-.3558-8.1013-6.5521-13.5401-6.0976-5.4162-16.5595-10.169-28.6514-10.4901-12.0889-.2983-22.8373 3.906-29.273 9.0032C2215.8211 1168.4251 2213.4522 1173.7972 2214.9409 1176.4976z" class="color4c3116 svgShape"/><path fill="#ff806d" d="M2318.7119 1324.3107c.4045-.0378.8141-.088 1.2225-.1505l15.9464-2.4533a3.1022 3.1022 0 10-.9405-6.1327l-15.9464 2.4533c-4.6708.7355-9.362-.883-13.3414-4.4727a25.89587 25.89587 0 01-7.9153-15.3463l-.2796-1.8118c-.7358-4.7944 1.5793-9.1494 5.1646-9.7042a18.19461 18.19461 0 0012.9189-9.206 25.94936 25.94936 0 002.9996-17.0728l-4.1285-25.8465a3.226 3.226 0 00-3.5563-2.5766 3.10491 3.10491 0 00-2.5794 3.552l4.1275 25.8284a19.73323 19.73323 0 01-2.2262 12.9774 12.07816 12.07816 0 01-8.5022 6.212c-6.9721 1.0785-11.6166 8.6037-10.357 16.7758l.2796 1.8118a32.13056 32.13056 0 009.885 19.0081C2306.5362 1322.723 2312.6057 1324.8819 2318.7119 1324.3107zM2341.8989 1386.2441s40.9349 2.0439 90.9457-20.7743C2432.8446 1365.4698 2387.5811 1413.8404 2341.8989 1386.2441z" class="colorff806d svgShape"/><path fill="#4c3116" d="M2379.535,1023.127s44.9223-5.6893,112.958,3.1557,63.2536,192.5018,99.0001,186.5483,36.3696-46.0025,36.3696-46.0025l-81.7963-225.9089-238.8149-46.2881-68.6161,113.6805S2254.5906,1059.0011,2379.535,1023.127Z" class="color4c3116 svgShape"/><path fill="#4c3116" d="M2437.9823,1016.1253s-.5752.336-1.6634.909c-10.5624,5.7236-70.3444,35.4194-137.7277,16.6075,0,0-78.7286,35.7017-117.0033-27.0821,0,0-14.9382-33.4827-1.7943-59.8591-.0563,1.1025-.8395,16.4912,13.8229,19.0033,0,0-22.5489-53.2331,23.4946-72.9036,36.4676-15.5836,62.4893-25.4555,71.4021-36.0829a14.52464,14.52464,0,0,0,2.6427-4.2728c-1.6946,11.8129-4.1105,44.657,19.768,55.1385,0,0-6.9202-11.018.0047-29.7842,0,0,38.7515,93.4311,104.5588,122.6442a69.221,69.221,0,0,1,21.559,14.7228Z" class="color4c3116 svgShape"/><path fill="#35200d" d="M2437.0464,1015.1659l-.7275,1.8684c-10.5624,5.7236-70.3444,35.4194-137.7277,16.6075,0,0-78.7286,35.7017-117.0033-27.0821,0,0-14.9382-33.4827-1.7943-59.8591-.0563,1.1025-.8395,16.4912,13.8229,19.0033,0,0-22.5489-53.2331,23.4946-72.9036,36.4676-15.5836,62.4893-25.4555,71.4021-36.0829-5.1768,9.6555-13.8748,20.5656-28.0421,27.1783-29.7437,13.853-35.7374,32.1083-35.7374,32.1083-18.3648,50.8348,55.2177,80.9454,55.2177,80.9454-9.2762-17.1834-.0315-38.5104-.0315-38.5104C2302.3383,1023.9391,2437.0464,1015.1659,2437.0464,1015.1659Z" class="color35200d svgShape"/><path fill="#fbbd9d" d="M2616.9231,1193.8581s-5.6058-35.7829,43.8432-36.353c61.2911-.7067,57.7543,155.3483-37.2584,164.381s-10.2555-43.4498-10.2555-43.4498Z" class="colorfbbd9d svgShape"/><path fill="#35200d" d="M2499.4806,931.8902s107.147,7.2347,121.4703,65.6873c5.7672,23.5354,4.7856,37.2495,7.405,52.7155,6.75,39.8542,10.7227,62.7779,17.616,83.363,0,0-16.945-38.7871-29.6945-126.2046C2607.5191,947.3997,2499.4806,931.8902,2499.4806,931.8902Z" class="color35200d svgShape"/><path fill="#35200d" d="M2508.5431,928.9651s103.1364-18.7732,123.3472,27.8684c8.1377,18.7799,8.7328,30.7343,12.9626,43.348,10.8999,32.5038,17.2555,51.1785,26.139,67.1735,0,0-20.517-29.2166-42.4615-100.9904C2613.4556,917.0594,2508.5431,928.9651,2508.5431,928.9651Z" class="color35200d svgShape"/><path fill="#ff806d" d="M2649.6883,1270.6808a4.81724,4.81724,0,0,1-2.9953-2.0826l-15.9939-24.1292,34.3628-26.8889a4.7884,4.7884,0,0,1,7.0562,1.0987,5.75307,5.75307,0,0,1-1.252,7.597l-26.0776,20.4059,10.2287,15.4441a5.7433,5.7433,0,0,1-1.2718,7.5927A4.872,4.872,0,0,1,2649.6883,1270.6808Z" class="colorff806d svgShape"/><path fill="#fff2dc" d="M3209.1729 2109.1518c-71.2867 50.0212-211.658 135.5223-365.7759 158.8638l-2.3794-25.3647c7.9236-5.0071 179.9896-30.4222 357.5232-162.48C3202.0849 2089.6795 3205.6544 2099.3398 3209.1729 2109.1518zM3234.0577 2181.8062c-76.4257 51.8672-222.5436 136.6604-371.0416 159.1419l-2.3794-25.3898c7.7972-4.9313 187.6345-35.2525 363.7252-162.9858Q3229.26045 2167.025 3234.0577 2181.8062z" class="colorfff2dc svgShape"/><path fill="#fcad2d" d="M3019.9607,1805.6198s-130.2751,125.6524-200.4091,322.0052a160.42678,160.42678,0,0,0-8.1817,72.3079l23.8028,206.7023,55.7946-18.2349-47.8898-191.9426a139.00773,139.00773,0,0,1,2.3519-75.7454C2864.5583,2060.4841,2912.5296,1940.0642,3019.9607,1805.6198Z" class="colorfcad2d svgShape"/><path fill="#fcfefb" d="M2621.9642,1316.9182c-28.3327,28.4202-41.0391,68.024-42.8483,107.4544-2.1394,46.6293,11.4703,92.144,26.0402,135.8986,15.6416,46.9731,33.3403,94.4513,35.4984,144.4357,1.982,45.9063-12.402,88.442-37.018,126.7672-23.1559,36.0518-52.8949,67.2871-82.2663,98.2602-15.0319,15.8517-30.2225,31.6963-42.8068,49.6208a159.91724,159.91724,0,0,0-26.4462,62.4903c-4.5694,23.8976-5.5158,48.4114-7.253,72.6291q-2.7993,39.02475-5.5985,78.0495c-3.6396,50.7401-6.2103,101.6937-11.217,152.319-2.3361,23.6211-6.146,47.3356-14.5923,69.6221a157.21854,157.21854,0,0,1-33.6003,52.7435c-27.9127,29.2275-64.3851,48.6916-100.686,65.4783-9.0688,4.1936-18.2089,8.2298-27.366,12.226-4.9269,2.1501-.669,9.3668,4.2264,7.2304,36.8558-16.084,74.0087-32.9735,105.9692-57.7577,32.8692-25.4888,55.9938-58.6899,66.249-99.2111,5.6925-22.4928,7.9933-45.7107,9.766-68.791,1.99-25.9106,3.7415-51.8412,5.6007-77.7615q5.6382-78.6015,11.2764-157.2029c1.7445-24.2127,3.6474-48.754,11.7755-71.8194,7.7004-21.8515,21.5764-40.8348,36.7105-58.1177,28.5889-32.6483,60.1739-62.4353,86.8373-96.7988,25.2424-32.532,46.7887-69.0084,55.0497-109.796,9.8311-48.54-.3981-97.9855-14.7645-144.522-25.5241-82.6795-71.0416-180.4533-21.3496-263.5399a124.19552,124.19552,0,0,1,18.7346-23.986c3.8092-3.821-2.1097-9.7442-5.9211-5.9211Z" class="colorfcfefb svgShape"/><path fill="#004589" d="M1580.527,2555.199h933.1333a8.5834,8.5834,0,0,1,8.5834,8.5834v14.6669a8.5834,8.5834,0,0,1-8.5834,8.5834H1580.527a0,0,0,0,1,0,0V2555.199A0,0,0,0,1,1580.527,2555.199Z" class="color004589 svgShape"/><path fill="#2d71d3" d="M1118.2743,1912.856h961.8013l174.6733,642.343H1313.0322l-203.6427-630.151A9.32827,9.32827,0,0,1,1118.2743,1912.856Z" class="color2d71d3 svgShape"/><path fill="#155eb5" d="M1313.0322 2555.199h941.7167a0 0 0 010 0v31.8337a0 0 0 010 0H1322.2135a9.1813 9.1813 0 01-9.1813-9.1813V2555.199A0 0 0 011313.0322 2555.199zM2077.5441 1912.856h15.3927a13.02457 13.02457 0 0112.5585 9.5559l174.5686 632.7871h-25.315z" class="color155eb5 svgShape"/><ellipse cx="1653.177" cy="2239.964" fill="#4993ea" rx="67.677" ry="96.951" transform="rotate(-28.943 1653.177 2239.964)" class="color4993ea svgShape"/><path fill="#f4ab8c" d="M2532.0556,2375.4506l-46.065-5.4765a30.93487,30.93487,0,0,0-19.7024,4.2728l-63.8153,38.7343a23.83155,23.83155,0,0,0-10.6163,14.1414c-3.9188,14.42-12.8284,43.1008-26.6178,64.6361l132.7103-25.6819Z" class="colorf4ab8c svgShape"/><path fill="#ff7db2" d="M2561.3984,2208.426l1.8762.9609a9.54436,9.54436,0,0,1,4.1403,12.8529l-157.1638,306.217-10.3782-5.3155Z" class="colorff7db2 svgShape"/><rect width="353.746" height="11.66" x="2298.574" y="2357.296" fill="#fb679b" transform="rotate(-62.879 2475.447 2363.126)" class="colorfb679b svgShape"/><path fill="#f2518e" d="M2549.1296,2202.1422l1.8906.9683-161.5255,314.7153-10.3783-5.3155,157.1712-306.2313A9.54414,9.54414,0,0,1,2549.1296,2202.1422Z" class="colorf2518e svgShape"/><polygon fill="#ffe0b6" points="2379.117 2512.51 2360.528 2587.033 2410.251 2528.457 2410.251 2528.457 2410.251 2528.457 2410.558 2515.09 2399.873 2523.141 2399.873 2523.141 2399.873 2523.141 2399.873 2523.141 2400.18 2509.774 2389.495 2517.826 2389.495 2517.826 2389.494 2517.826 2389.495 2517.826 2389.802 2504.459 2379.117 2512.51 2379.117 2512.51 2379.117 2512.51" class="colorffe0b6 svgShape"/><polygon fill="#f7cc9a" points="2360.528 2587.033 2389.495 2517.826 2389.802 2504.459 2379.117 2512.51 2360.528 2587.033" class="colorf7cc9a svgShape"/><polygon fill="#fcd2a9" points="2389.495 2517.826 2360.528 2587.033 2399.873 2523.141 2400.18 2509.774 2389.495 2517.826" class="colorfcd2a9 svgShape"/><polygon fill="#7a7b7c" points="2360.528 2587.033 2377.149 2567.453 2366.741 2562.122 2360.528 2587.033" class="color7a7b7c svgShape"/><polygon fill="#666666" points="2360.528 2587.033 2373.68 2565.676 2370.21 2563.899 2360.528 2587.033" class="color666 svgShape"/><polygon fill="#4c4c4c" points="2360.528 2587.033 2370.21 2563.899 2366.741 2562.122 2360.528 2587.033" class="color4c4c4c svgShape"/><polygon fill="#9b2f60" points="2529.902 2218.72 2560.932 2234.871 2555.749 2244.969 2524.419 2229.404 2529.902 2218.72" class="color9b2f60 svgShape"/><path fill="#fbbd9d" d="M3166.8378,2330.7822h-77.058a163.50178,163.50178,0,0,0-50.7916,8.0889l-385.3521,125.9413-105.0416-81.8475a39.06379,39.06379,0,0,0-44.6914-2.32l-15.6749,9.7864a38.99793,38.99793,0,0,0-16.2719,20.5261l-20.8399,37.4173-129.4721,64.7766a17.83361,17.83361,0,0,0-9.6479,19.455l4.647,40.0315a17.8525,17.8525,0,0,0,17.5212,14.3949h875.4105a103.28293,103.28293,0,0,0,82.5943-41.2519h0a83.68547,83.68547,0,0,0,6.5749-90.2892l-37.3482-68.5688A107.66652,107.66652,0,0,0,3166.8378,2330.7822Z" class="colorfbbd9d svgShape"/><path fill="#e2e2e2" d="M2669.9473,1251.6613a32.37345,32.37345,0,0,1-3.7924,7.5126l-31.922,59.0454a7.4716,7.4716,0,0,1-7.7041,3.7898,7.12052,7.12052,0,0,1-2.8694-1.0138,7.62706,7.62706,0,0,1-3.4779-6.2208,6.48825,6.48825,0,0,1,.6986-3.2881l20.1686-43.3379a15.217,15.217,0,0,1-5.0722-4.5666,16.75933,16.75933,0,0,1-2.5714-4.6603c-2.2013-5.6614-2.2918-12.9025.1604-20.0048,4.6083-13.1928,16.5146-21.0482,26.5569-17.5003a15.20255,15.20255,0,0,1,5.6635,3.5977C2671.6698,1230.7513,2673.5408,1241.3344,2669.9473,1251.6613Z" class="colore2e2e2 svgShape"/><path fill="#fcfefb" d="M2665.7628,1245.1136a32.3559,32.3559,0,0,1-3.7928,7.5125l-31.9216,59.0455a7.47128,7.47128,0,0,1-7.7045,3.7892,5.89148,5.89148,0,0,1-2.1624-.6863,6.48825,6.48825,0,0,1,.6986-3.2881l20.1686-43.3379a15.217,15.217,0,0,1-5.0722-4.5666l.8877-1.9811a16.12544,16.12544,0,0,1-3.4591-2.6792,29.10019,29.10019,0,0,1,.118-19.7094l.053-.3692c4.6717-13.1084,16.504-20.9744,26.5463-17.4265a15.20255,15.20255,0,0,1,5.6635,3.5977C2668.1351,1230.6963,2668.2257,1237.9375,2665.7628,1245.1136Z" class="colorfcfefb svgShape"/><path fill="#e2e2e2" d="M2643.1091,1263.2491l-2.0604,4.8994a15.217,15.217,0,0,1-5.0722-4.5666l.8877-1.9811a16.12544,16.12544,0,0,1-3.4591-2.6792,29.10019,29.10019,0,0,1,.118-19.7094C2631.9777,1247.3479,2632.9211,1257.0453,2643.1091,1263.2491Z" class="colore2e2e2 svgShape"/><polygon points="1394.634 492.75 1393.625 475.815 1108.672 492.75 863.955 492.75 863.955 507.294 801.63 510.998 846.52 1264.767 1131.136 1247.851 1456.979 1247.851 1456.979 593.968 1456.979 492.75 1394.634 492.75" style="mix-blend-mode:multiply" fill="#eef2ff" class="coloreef2ff svgShape"/><rect width="593.04" height="755.104" x="809.127" y="477.659" fill="#70a4ef" transform="rotate(-3.401 1105.649 855.212)" class="color70a4ef svgShape"/><rect width="593.023" height="755.101" x="849.53" y="477.67" fill="#ffffff" class="colorfff svgShape"/><rect width="593.023" height="101.218" x="849.53" y="477.67" fill="#88b3ff" class="color88b3ff svgShape"/><rect width="388.521" height="7.686" x="882.02" y="634.599" fill="#c2e3ff" class="colorc2e3ff svgShape"/><rect width="388.521" height="7.686" x="882.02" y="657.655" fill="#c2e3ff" class="colorc2e3ff svgShape"/><rect width="388.521" height="7.686" x="882.02" y="680.712" fill="#c2e3ff" class="colorc2e3ff svgShape"/><rect width="388.521" height="7.686" x="882.02" y="703.769" fill="#c2e3ff" class="colorc2e3ff svgShape"/><rect width="388.521" height="7.686" x="882.02" y="726.825" fill="#c2e3ff" class="colorc2e3ff svgShape"/><rect width="388.521" height="7.686" x="951.781" y="967.959" fill="#c2e3ff" class="colorc2e3ff svgShape"/><rect width="388.521" height="7.686" x="951.781" y="991.015" fill="#c2e3ff" class="colorc2e3ff svgShape"/><rect width="388.521" height="7.686" x="951.781" y="1014.072" fill="#c2e3ff" class="colorc2e3ff svgShape"/><rect width="388.521" height="7.686" x="951.781" y="1037.128" fill="#c2e3ff" class="colorc2e3ff svgShape"/><rect width="388.521" height="7.686" x="951.781" y="1060.185" fill="#c2e3ff" class="colorc2e3ff svgShape"/><rect width="105.785" height="121.047" x="1304.234" y="613.464" fill="#c2e3ff" class="colorc2e3ff svgShape"/><rect width="494.57" height="173.262" x="896.217" y="772.6" fill="#c2e3ff" class="colorc2e3ff svgShape"/><rect width="494.57" height="86.631" x="896.217" y="1107.002" fill="#c2e3ff" class="colorc2e3ff svgShape"/><path fill="#eef2ff" d="M898.16078 562.7766a4.1633 4.1633 0 01-1.1918-3.079V512.7331h-16.4383q-3.94515 0-3.9444-3.5308a3.31178 3.31178 0 011.0269-2.6273 4.28327 4.28327 0 012.9175-.9021h41.4234a4.28936 4.28936 0 012.9188.9021 3.31612 3.31612 0 011.027 2.6273q0 3.53145-3.9458 3.5308h-16.437v46.9645a4.24825 4.24825 0 01-1.1509 3.079 4.638 4.638 0 01-6.2054 0zM933.99578 562.4473a4.04481 4.04481 0 01-1.1101-2.996V509.7779a4.05057 4.05057 0 011.1101-2.9975 4.16747 4.16747 0 013.0823-1.1075h30.2452a4.283 4.283 0 012.9174.9021 3.2143 3.2143 0 011.0284 2.5457 3.08686 3.08686 0 01-1.0284 2.5049 4.417 4.417 0 01-2.9174.8612h-26.136v18.2269h24.492a4.28965 4.28965 0 012.9188.9034 3.66873 3.66873 0 010 5.0915 4.28222 4.28222 0 01-2.9188.902h-24.492v19.1303h26.136q3.945 0 3.9458 3.3676a3.20749 3.20749 0 01-1.0284 2.5443 4.26913 4.26913 0 01-2.9174.9035h-30.2452A4.16822 4.16822 0 01933.99578 562.4473zM987.4186 562.4896a23.537 23.537 0 01-9.00033-4.7622 4.20287 4.20287 0 01-1.5622-3.3676 3.88069 3.88069 0 01.8226-2.5035 2.45385 2.45385 0 011.9723-1.0259 5.46291 5.46291 0 012.7949 1.0667 27.30064 27.30064 0 0016.68483 5.4194q6.57375 0 10.109-2.4627a8.08764 8.08764 0 003.5345-7.0617 5.83126 5.83126 0 00-3.288-5.4193 43.2803 43.2803 0 00-10.5203-3.4478 63.45561 63.45561 0 01-11.343-3.3662 16.91215 16.91215 0 01-6.945-5.1322 13.088 13.088 0 01-2.5061-8.2508 15.06951 15.06951 0 012.75263-8.9093 18.07946 18.07946 0 017.686-6.0752 27.64793 27.64793 0 0111.2599-2.1756 33.89685 33.89685 0 0110.7668 1.6423 22.67556 22.67556 0 018.3833 4.8438 4.27749 4.27749 0 011.644 3.3661 3.80392 3.80392 0 01-.8635 2.4627 2.53684 2.53684 0 01-2.0131 1.0681 5.39287 5.39287 0 01-2.7132-1.0681 29.37222 29.37222 0 00-7.1084-4.1458 22.51275 22.51275 0 00-8.0142-1.2721q-6.33075 0-9.8624 2.5865a8.40023 8.40023 0 00-3.5345 7.1841 6.62288 6.62288 0 003.1231 5.9527q3.12315 2.01165 10.0273 3.6532a83.11875 83.11875 0 0111.7121 3.407 18.00124 18.00124 0 017.1506 4.8438 11.66676 11.66676 0 012.671 7.9243 14.57462 14.57462 0 01-2.7527 8.7433 17.73815 17.73815 0 01-7.7268 5.9118 29.34587 29.34587 0 01-11.4656 2.094A40.3594 40.3594 0 01987.4186 562.4896zM1045.4452 562.7766a4.1633 4.1633 0 01-1.1918-3.079V512.7331h-16.4383q-3.94515 0-3.9445-3.5308a3.31183 3.31183 0 011.027-2.6273 4.28327 4.28327 0 012.9175-.9021h41.4233a4.28964 4.28964 0 012.9189.9021 3.31645 3.31645 0 011.027 2.6273q0 3.53145-3.9459 3.5308h-16.4369v46.9645a4.24825 4.24825 0 01-1.1509 3.079 4.638 4.638 0 01-6.2054 0z" class="coloreef2ff svgShape"/><path d="M1410.844,2406.956a70.49821,70.49821,0,0,0-7.2824-.4256v-46.798c0,.0135-.0069.0269-.0072.0403v-.029H1142.0581l-.0026-.0113h-.9731v.0113h-.0081v130.7739a72.64325,72.64325,0,0,0,72.675,72.6276H1330.895a72.63853,72.63853,0,0,0,64.652-39.4774l.0104-.0012v.0314s53.8331,11.4766,64.9449-59.3902C1469.3541,2407.9592,1428.0771,2405.5763,1410.844,2406.956Zm.1571,26.2458c8.4439-.8467,31.3896-.4705,26.6496,29.7892-5.7757,36.8758-33.8066,30.8864-33.8066,30.8864v-60.895A28.80988,28.80988,0,0,0,1411.0011,2433.2018Z" style="mix-blend-mode:multiply" fill="#e2e2e2" class="colore2e2e2 svgShape"/><path fill="#ffffff" d="M1383.3032,2406.956a67.32829,67.32829,0,0,0-7.2823.9721l-7.4393-1.129-.565-.094V2523.698s53.8331,11.4766,64.9449-59.3901C1441.8134,2407.9593,1400.5363,2405.5763,1383.3032,2406.956Zm-6.9998,26.0263a28.809,28.809,0,0,0,7.1569.2195c8.4438-.8467,31.3896-.4704,26.6497,29.7891-5.7757,36.8759-33.8066,30.8866-33.8066,30.8866Z" class="colorfff svgShape"/><path fill="#eaeaea" d="M1383.3032,2406.956a75.30632,75.30632,0,0,0-14.7216-.1569c-.1884,0-.3767.0314-.565.0314a70.74088,70.74088,0,0,0-7.6905,1.0976l-8.0043-1.223V2523.698a52.8603,52.8603,0,0,0,15.6948-.0314c17.1701-2.4145,49.5013-7.7139,56.7523-54.028C1431.5177,2426.5853,1402.3253,2409.1197,1383.3032,2406.956Zm26.8068,56.0349c-5.7757,36.8759-33.8066,30.8866-33.8066,30.8866v-2.0383a27.61755,27.61755,0,0,1-15.6947,2.0383v-60.8952a28.80883,28.80883,0,0,0,7.1569.2195,38.97536,38.97536,0,0,1,8.5378.0626v-.2821a28.809,28.809,0,0,0,7.1569.2195C1391.9041,2432.3551,1414.8499,2432.7314,1410.11,2462.9909Z" class="coloreaeaea svgShape"/><g mask="url(#K)" fill="#000000" class="color000 svgShape"><path d="M1198.7643,2375.5677s-100.4464-25.0856-81.6127-87.7996,87.8906-62.7139,65.918-188.1418-6.2779-141.1064,91.0296-206.9561c0,0-78.4738,109.7494,0,194.4133s-15.7359,162.2659-28.2506,194.4132c-21.9727,56.4426,32.959,91.9805,32.959,91.9805Z" style="mix-blend-mode:screen" fill="url(#y)" opacity=".9"/></g><g mask="url(#L)" fill="#000000" class="color000 svgShape"><path d="M1306.974,2375.5676s39.5297-13.1944,32.1179-46.1802-78.0734-54.9706-27.3253-98.0618c62.779-53.3069.627-109.607-37.6674-144.2421,0,0,37.6674,65.8496-21.9727,144.2421-32.8134,43.1308,31.3929,77.8545,36.318,94.7632,8.6471,29.6873-12.9707,48.3793-12.9707,48.3793Z" style="mix-blend-mode:screen" fill="url(#M)" opacity=".9"/></g><path fill="#f4b537" d="M1376.0209,2359.7324v130.7899a72.63726,72.63726,0,0,1-72.6667,72.6228H1186.2085a72.63741,72.63741,0,0,1-72.6668-72.6228V2359.7324h.9731c0,7.9019,58.5415,14.33,130.7374,14.33,16.1969,0,31.7033-.3135,46.017-.9093C1340.8019,2371.1148,1376.0209,2365.8469,1376.0209,2359.7324Z" class="colorf4b537 svgShape"/><rect width="262.48" height="37.384" x="1113.534" y="2359.744" fill="#f4b537" class="colorf4b537 svgShape"/><path fill="#f9c655" d="M1291.2557,2490.5176a72.61338,72.61338,0,0,1-72.6419,72.6215H1186.203a72.63673,72.63673,0,0,1-72.6694-72.6215V2359.7437h.9913c0,1.5955,2.3407,1.3754,6.664,0h169.2132l.2477,37.3837Z" class="colorf9c655 svgShape"/><path fill="#ffffff" d="M1499.327,2574.1281v.9077c0,6.6295-4.8954,11.9937-10.9456,11.9937H998.2888c-6.0501,0-10.9455-5.3642-10.9455-11.9937v-.9077c0-6.6295,4.8954-11.9937,10.9455-11.9937h490.0926C1494.4316,2562.1344,1499.327,2567.4986,1499.327,2574.1281Z" class="colorfff svgShape"/><path fill="#eaeaea" d="M1382.2139,2574.1281v.9077c0,6.6295-4.9204,11.9937-10.9707,11.9937H998.2888c-6.0501,0-10.9455-5.3642-10.9455-11.9937v-.9077c0-6.6295,4.8954-11.9937,10.9455-11.9937h372.9544C1377.2935,2562.1344,1382.2139,2567.4986,1382.2139,2574.1281Z" class="coloreaeaea svgShape"/><rect width="115.482" height="63.292" x="585.84" y="1404.534" fill="none"/><rect width="11.549" height="11.748" x="636.117" y="1451.402" fill="#645199" class="color645199 svgShape"/><rect width="11.549" height="11.748" x="636.117" y="1430.331" fill="#645199" class="color645199 svgShape"/><rect width="11.549" height="11.748" x="636.117" y="1409.329" fill="#645199" class="color645199 svgShape"/><rect width="97.784" height="115.482" x="701.322" y="1467.826" fill="none"/><rect width="18.15" height="11.549" x="773.732" y="1521.482" fill="#645199" class="color645199 svgShape"/><rect width="18.15" height="11.549" x="741.178" y="1521.482" fill="#645199" class="color645199 svgShape"/><rect width="18.15" height="11.549" x="708.731" y="1521.482" fill="#645199" class="color645199 svgShape"/><rect width="97.784" height="115.482" x="799.106" y="1467.826" fill="none"/><rect width="18.15" height="11.549" x="871.515" y="1521.482" fill="#645199" class="color645199 svgShape"/><rect width="18.15" height="11.549" x="838.962" y="1521.482" fill="#645199" class="color645199 svgShape"/><rect width="18.15" height="11.549" x="806.515" y="1521.482" fill="#645199" class="color645199 svgShape"/><rect width="97.784" height="115.482" x="896.89" y="1467.826" fill="none"/><rect width="18.15" height="11.549" x="969.299" y="1521.482" fill="#645199" class="color645199 svgShape"/><rect width="18.15" height="11.549" x="936.746" y="1521.482" fill="#645199" class="color645199 svgShape"/><rect width="18.15" height="11.549" x="904.299" y="1521.482" fill="#645199" class="color645199 svgShape"/><rect width="97.784" height="115.482" x="994.674" y="1467.826" fill="none"/><rect width="18.15" height="11.549" x="1067.083" y="1521.482" fill="#645199" class="color645199 svgShape"/><rect width="18.15" height="11.549" x="1034.53" y="1521.482" fill="#645199" class="color645199 svgShape"/><rect width="18.15" height="11.549" x="1002.083" y="1521.482" fill="#645199" class="color645199 svgShape"/><rect width="97.784" height="115.482" x="1092.458" y="1467.826" fill="none"/><rect width="18.15" height="11.549" x="1164.867" y="1521.482" fill="#645199" class="color645199 svgShape"/><rect width="18.15" height="11.549" x="1132.314" y="1521.482" fill="#645199" class="color645199 svgShape"/><rect width="18.15" height="11.549" x="1099.867" y="1521.482" fill="#645199" class="color645199 svgShape"/><rect width="11.594" height="19.257" x="638.679" y="1475.758" fill="#645199" class="color645199 svgShape"/><polygon fill="#645199" fill-rule="evenodd" points="638.679 1529.663 638.679 1510.414 650.273 1510.414 650.273 1518.113 657.928 1518.113 657.928 1529.663 638.679 1529.663" class="color645199 svgShape"/><rect width="19.249" height="11.549" x="673.327" y="1518.113" fill="#645199" class="color645199 svgShape"/><path fill="#4d388a" d="M668.40488,1304.651H609.9814a3.36753,3.36753,0,0,1-3.36762-3.3644v-7.7434a39.72275,39.72275,0,0,0-14.4427-30.279,72.94212,72.94212,0,0,1-25.38889-64.5375c3.91821-33.1492,30.88169-59.8746,64.11259-63.5451a72.85019,72.85019,0,0,1,55.2243,128.162,39.50122,39.50122,0,0,0-14.3464,30.1968v7.7462A3.36757,3.36757,0,0,1,668.40488,1304.651Zm-55.0556-6.7287h51.6878v-4.3819a46.21283,46.21283,0,0,1,16.7471-35.3456,66.20652,66.20652,0,1,0-85.2685-.0724,46.436,46.436,0,0,1,16.8336,35.4208Z" class="color4d388a svgShape"/><path fill="#4d388a" d="M672.41508 1322.2215h-66.4438a12.14961 12.14961 0 110-24.2992h66.4438a12.14961 12.14961 0 110 24.2992zm-66.4438-17.5705a5.4209 5.4209 0 100 10.8418h66.4438a5.4209 5.4209 0 100-10.8418zM672.41508 1357.3612h-66.4438a12.15031 12.15031 0 110-24.3006h66.4438a12.15031 12.15031 0 110 24.3006zm-66.4438-17.5734a5.42235 5.42235 0 100 10.8447h66.4438a5.42235 5.42235 0 100-10.8447z" class="color4d388a svgShape"/><path fill="#4d388a" d="M668.11508 1331.9586h-57.8438c-1.8601 0-3.3678-1.0494-3.3678-2.3454v-12.2521c0-1.296 1.5077-2.3464 3.3678-2.3464h57.8438c1.8602 0 3.3678 1.0504 3.3678 2.3464v12.2521C671.48288 1330.9092 669.97528 1331.9586 668.11508 1331.9586zm-32.289-4.6917h28.9212v-7.5594h-51.1082v7.5594h22.187M649.42408 1304.651c-2.4063-.3633-3.63668-2.1033-3.3204-3.9351l14.1624-82.2445-5.947 4.0047a3.3713 3.3713 0 01-3.68968.0487l-11.43552-7.2618-11.437 7.2618a3.36071 3.36071 0 01-3.6897-.0487l-5.9456-4.0047 14.1611 82.2445a3.36621 3.36621 0 01-6.6352 1.14l-15.5002-90.0087a3.36714 3.36714 0 015.2015-3.3602l10.6552 7.1783 11.3826-7.227a3.37231 3.37231 0 013.6145 0l11.3812 7.227 10.6553-7.1783a3.36714 3.36714 0 015.2015 3.3602l-15.5001 90.0087A3.36527 3.36527 0 01649.42408 1304.651zM639.19388 1122.6555a3.36674 3.36674 0 01-3.3678-3.3644v-15.7596a3.3678 3.3678 0 016.7356 0v15.7596A3.36674 3.36674 0 01639.19388 1122.6555zM707.0464 1154.2624a3.36354 3.36354 0 01-2.16532-5.9409l12.0862-10.1291a3.36472 3.36472 0 114.3265 5.1543l-12.0847 10.1292A3.35015 3.35015 0 01707.0464 1154.2624zM741.962 1229.2395c-.5894-.0501-16.1243-2.7867-16.1243-2.7867a3.36478 3.36478 0 111.1704-6.627l15.5349 2.7366a3.36386 3.36386 0 01-.581 6.6771zM571.34 1154.2624a3.34951 3.34951 0 01-2.16259-.7865l-12.08471-10.1292a3.36466 3.36466 0 114.3263-5.1543l12.0863 10.1291a3.36358 3.36358 0 01-2.1653 5.9409zM536.4244 1229.2395a3.36386 3.36386 0 01-.58091-6.6771l15.5347-2.7366a3.36479 3.36479 0 111.1705 6.627l-15.5348 2.7366A3.55045 3.55045 0 01536.4244 1229.2395z" class="color4d388a svgShape"/><path d="M1970.434,1450.5069v194.8244a14.6315,14.6315,0,0,1-14.632,14.6168H1376.8741v66.9393l-60.199-66.9393H1154.2796a14.61,14.61,0,0,1-14.6067-14.6168V1450.5069a14.58838,14.58838,0,0,1,14.6067-14.5915H1955.802A14.60993,14.60993,0,0,1,1970.434,1450.5069Z" style="mix-blend-mode:multiply" fill="#d1d1d1" opacity=".91" class="colord1d1d1 svgShape"/><path fill="#ed4747" d="M1957.6245,1436.7237v194.8244a14.6315,14.6315,0,0,1-14.632,14.6168H1364.0646v66.9393l-60.1991-66.9393H1141.4701a14.61,14.61,0,0,1-14.6068-14.6168V1436.7237a14.5884,14.5884,0,0,1,14.6068-14.5915h801.5224A14.60993,14.60993,0,0,1,1957.6245,1436.7237Z" class="colored4747 svgShape"/><path fill="#ffffff" d="M1199.1561 1587.0297q-2.761-2.7522-2.759-7.832V1497.972a10.97175 10.97175 0 013.0494-8.1222 12.76447 12.76447 0 0116.5516 0 10.97182 10.97182 0 013.0495 8.1222v73.3936h37.1706q10.59645 0 10.5992 9.2827 0 9.137-10.5992 9.1376h-49.2219Q1201.91175 1589.7859 1199.1561 1587.0297zM1280.899 1587.0297q-2.76105-2.7522-2.759-7.832v-81.0806q0-5.07525 2.759-7.8321 2.757-2.75415 7.8402-2.7562h51.3987q10.74375 0 10.7445 8.7038 0 8.8488-10.7445 8.8475h-39.9282v23.9326h37.0253q10.7418 0 10.7444 8.8475 0 8.7018-10.7444 8.7024h-37.0253v25.6734h39.9282q10.74375 0 10.7445 8.8475 0 8.7018-10.7445 8.7024h-51.3987Q1283.65465 1589.7859 1280.899 1587.0297zM1378.325 1588.4078a44.55088 44.55088 0 01-16.1174-7.6144 10.173 10.173 0 01-3.122-3.409 10.67588 10.67588 0 011.3069-10.9509 6.56144 6.56144 0 015.1551-2.7562 9.86437 9.86437 0 013.122.5077 19.72927 19.72927 0 013.7016 1.8133 48.87 48.87 0 0012.6322 5.73 51.41449 51.41449 0 0014.0844 1.8119q9.582 0 14.6638-3.19a10.17631 10.17631 0 005.0825-9.1376q0-4.4949-4.7195-7.2531-4.7193-2.7522-16.7694-5.2209-13.50285-2.7543-21.5615-6.6729-8.05935-3.9147-11.7609-9.7179a25.60588 25.60588 0 01-3.7029-14.0684 27.39419 27.39419 0 015.3003-16.4632 35.11836 35.11836 0 0114.6638-11.4586 51.79442 51.79442 0 0121.1272-4.1343q20.6142 0 33.9745 10.2981a11.55682 11.55682 0 013.1221 3.554 9.4948 9.4948 0 01.9438 4.4244 9.78954 9.78954 0 01-2.2508 6.3814 6.55709 6.55709 0 01-5.1537 2.7562 9.83038 9.83038 0 01-2.9769-.4352 20.56383 20.56383 0 01-3.8481-1.8858 61.15893 61.15893 0 00-10.9623-5.6561 36.4989 36.4989 0 00-12.7034-1.8858q-8.8581 0-13.9391 3.409a10.68946 10.68946 0 00-5.0825 9.3552 8.39943 8.39943 0 001.9604 5.7286 16.27218 16.27218 0 006.5346 3.9892 99.40945 99.40945 0 0012.9939 3.6253q19.745 4.3518 28.3865 11.1684 8.6361 6.82005 8.6388 18.7118a27.18952 27.18952 0 01-5.1551 16.3894 33.24967 33.24967 0 01-14.5186 11.0234 55.91857 55.91857 0 01-21.7067 3.9167A81.182 81.182 0 011378.325 1588.4078zM1472.8453 1588.4078a44.55037 44.55037 0 01-16.1173-7.6144 10.17341 10.17341 0 01-3.1221-3.409 10.67588 10.67588 0 011.3069-10.9509 6.56173 6.56173 0 015.1551-2.7562 9.865 9.865 0 013.1221.5077 19.7352 19.7352 0 013.7016 1.8133 48.867 48.867 0 0012.6322 5.73 51.41323 51.41323 0 0014.0843 1.8119q9.582 0 14.6638-3.19a10.17631 10.17631 0 005.0825-9.1376q0-4.4949-4.7194-7.2531-4.71945-2.7522-16.7695-5.2209-13.5027-2.7543-21.5614-6.6729-8.05935-3.9147-11.761-9.7179a25.60588 25.60588 0 01-3.7029-14.0684 27.39419 27.39419 0 015.3003-16.4632 35.119 35.119 0 0114.6638-11.4586 51.79442 51.79442 0 0121.1272-4.1343q20.6142 0 33.9745 10.2981a11.55682 11.55682 0 013.1221 3.554 9.49354 9.49354 0 01.9439 4.4244 9.79007 9.79007 0 01-2.2508 6.3814 6.55723 6.55723 0 01-5.1537 2.7562 9.82944 9.82944 0 01-2.9769-.4352 20.567 20.567 0 01-3.8482-1.8858 61.15835 61.15835 0 00-10.9622-5.6561 36.49989 36.49989 0 00-12.7035-1.8858q-8.858 0-13.9391 3.409a10.68946 10.68946 0 00-5.0825 9.3552 8.39943 8.39943 0 001.9604 5.7286 16.27218 16.27218 0 006.5346 3.9892 99.40945 99.40945 0 0012.9939 3.6253q19.745 4.3518 28.3865 11.1684 8.6361 6.82005 8.6388 18.7118a27.1901 27.1901 0 01-5.155 16.3894 33.25056 33.25056 0 01-14.5187 11.0234 55.91822 55.91822 0 01-21.7067 3.9167A81.1831 81.1831 0 011472.8453 1588.4078zM1572.3741 1584.6362a43.60548 43.60548 0 01-17.3502-18.2752q-6.099-11.8206-6.099-27.7755t6.099-27.7768a43.18511 43.18511 0 0117.3502-18.2027q11.25-6.3807 26.4988-6.3827 15.24525 0 26.4973 6.3827a43.20406 43.20406 0 0117.3517 18.2027q6.0969 11.82465 6.0976 27.7768 0 15.95685-6.0976 27.7755a43.62474 43.62474 0 01-17.3517 18.2752q-11.252 6.45735-26.4973 6.4553Q1583.6275 1591.0915 1572.3741 1584.6362zm46.6081-20.0885q7.32915-8.9919 7.3319-25.9622 0-16.97025-7.2593-25.891-7.2627-8.9193-20.1819-8.92-12.9261 0-20.1094 8.92-7.188 8.91945-7.188 25.891 0 16.9704 7.2606 25.9622 7.25865 8.99595 20.0368 8.9925Q1611.6475 1573.5402 1618.9822 1564.5477zM1751.9786 1489.9224a11.19013 11.19013 0 012.9769 8.0496v81.3707a11.37534 11.37534 0 01-2.9769 8.1947 10.24339 10.24339 0 01-7.7675 3.1189 10.486 10.486 0 01-8.421-3.7716l-48.6411-62.2238v54.6818a11.71468 11.71468 0 01-2.8316 8.1947 9.7801 9.7801 0 01-7.6224 3.1189 10.00859 10.00859 0 01-7.6949-3.1189 11.53012 11.53012 0 01-2.9043-8.1947V1497.972a11.17872 11.17872 0 012.9769-8.0496 10.25122 10.25122 0 017.7675-3.1189 9.834 9.834 0 018.2758 3.7717l48.6411 61.7886V1497.972a11.3402 11.3402 0 012.9042-8.0496 9.84238 9.84238 0 017.5498-3.1189A10.25319 10.25319 0 011751.9786 1489.9224zM1889.6945 1580.6483q0 9.137-10.5992 9.1376h-49.6562q-10.7478 0-10.7444-9.1376 0-8.9919 10.7444-8.9925h13.5035v-59.3239l-12.7774 7.6869a8.412 8.412 0 01-4.3564 1.3056 7.76257 7.76257 0 01-6.1702-3.045 10.36538 10.36538 0 01-2.5413-6.8179 8.37315 8.37315 0 014.5016-7.687l22.9397-13.7796a19.62383 19.62383 0 0110.1649-3.0463 10.3478 10.3478 0 0110.8897 11.0234v73.6838h13.5021Q1889.69385 1571.6558 1889.6945 1580.6483z" class="colorfff svgShape"/><path fill="#ffffff" fill-rule="evenodd" d="M1751.815 1072.0919zm-16.5324-62.8855a31.75368 31.75368 0 109.3123 22.4649 31.71546 31.71546 0 00-9.3123-22.4649zm-6.8702-31.4895a56.10514 56.10514 0 0123.4002 13.5389 1.95508 1.95508 0 002.3287.2808l14.7779-8.5227.0787-.0489a3.686 3.686 0 014.9211 1.3885l.0641.1033 10.3967 17.9895a3.68357 3.68357 0 01-1.3429 5.0022l-.1015.059-14.6571 8.4535a1.9503 1.9503 0 00-.919 2.1517l-.0051.0046a55.78659 55.78659 0 011.235 6.7107 56.4509 56.4509 0 01-1.235 20.3973 1.94594 1.94594 0 001.0301 2.2152l14.6526 8.4485v.0051a3.68669 3.68669 0 011.3429 5.0021l-10.4558 18.0934h-.005a3.689 3.689 0 01-4.9998 1.339l-.1085-.059-14.6768-8.4631a1.95438 1.95438 0 00-2.3213.2854 56.14689 56.14689 0 01-23.4815 13.5585 1.94776 1.94776 0 00-1.4194 1.876v17.025a3.67072 3.67072 0 01-3.6594 3.6531h-20.9162a3.66642 3.66642 0 01-3.6569-3.6531v-17.025a1.95367 1.95367 0 00-1.5032-1.9002 56.1754 56.1754 0 01-23.4002-13.5343 1.94839 1.94839 0 00-2.4248-.2264l-14.6767 8.4682a3.70109 3.70109 0 01-5.0049-1.3441l-.0615-.1038-10.3993-17.9946.0025-.005a3.67828 3.67828 0 011.3359-4.9921l14.7631-8.5126a1.94763 1.94763 0 00.9216-2.1512h.0045a55.63854 55.63854 0 01-1.2344-6.7157 56.79312 56.79312 0 010-13.6866 55.39544 55.39544 0 011.2344-6.7107 1.953 1.953 0 00-1.032-2.2153l-14.6572-8.4535a3.67939 3.67939 0 01-1.3359-4.9971l.0566-.1084 10.3992-17.9895h.0025a3.68663 3.68663 0 015.0023-1.3441l-.0025.0045 14.7804 8.5227a1.94553 1.94553 0 002.3706-.3252 56.6175 56.6175 0 0110.8943-8.1924 55.94714 55.94714 0 0112.5428-5.3218 1.95593 1.95593 0 001.4219-1.881V958.7866a3.66559 3.66559 0 013.6569-3.648h20.9162a3.6699 3.6699 0 013.6594 3.648v17.0296A1.95086 1.95086 0 001728.4124 977.7169zM1874.7788 951.9118zm-20.3458-77.3906a39.07793 39.07793 0 1011.4603 27.6466 39.03093 39.03093 0 00-11.4603-27.6466zm-8.4549-38.7529a69.04634 69.04634 0 0128.7976 16.6618 2.40589 2.40589 0 002.8659.3455l18.1866-10.4884.0969-.0602a4.536 4.536 0 016.0561 1.7087l.0789.1272 12.7948 22.1389a4.533 4.533 0 01-1.6527 6.156l-.1248.0726-18.038 10.4034a2.40022 2.40022 0 00-1.131 2.648l-.0062.0056a68.63434 68.63434 0 011.5198 8.2586 69.88622 69.88622 0 010 16.8436 69.227 69.227 0 01-1.5198 8.2586 2.395 2.395 0 001.2677 2.7262l18.0323 10.3972v.0062a4.537 4.537 0 011.6527 6.156l-12.8675 22.2668h-.0062a4.53972 4.53972 0 01-6.153 1.6478l-.1335-.0726-18.0622-10.4152a2.40533 2.40533 0 00-2.8568.3512 69.09745 69.09745 0 01-28.8977 16.6859 2.39708 2.39708 0 00-1.7468 2.3087v20.952a4.5173 4.5173 0 01-4.5034 4.4957H1813.887a4.51213 4.51213 0 01-4.5004-4.4957v-20.952a2.404 2.404 0 00-1.8499-2.3384 69.13449 69.13449 0 01-28.7976-16.6562 2.39773 2.39773 0 00-2.9841-.2786l-18.0621 10.4214a4.55444 4.55444 0 01-6.1592-1.654l-.0758-.1279-12.798-22.1451.0032-.0062a4.52666 4.52666 0 011.6439-6.1436l18.1685-10.476a2.3968 2.3968 0 001.134-2.6474h.0056a68.46727 68.46727 0 01-1.5191-8.2648 69.88622 69.88622 0 010-16.8436 68.16516 68.16516 0 011.5191-8.2586 2.40337 2.40337 0 00-1.2701-2.7262l-18.038-10.4034a4.528 4.528 0 01-1.6439-6.1498l.0695-.1334 12.798-22.1389h.0031a4.53684 4.53684 0 016.1561-1.6541l-.0031.0056 18.1896 10.4884a2.394 2.394 0 002.9174-.4001 69.679 69.679 0 0113.4071-10.0821 68.85526 68.85526 0 0115.436-6.5493 2.407 2.407 0 001.7498-2.3149V812.4716a4.51114 4.51114 0 014.5004-4.4895h25.7408a4.51631 4.51631 0 014.5034 4.4895v20.9576A2.40072 2.40072 0 001845.9781 835.7683z" class="colorfff svgShape"/></g></svg>